<svg xmlns="http://www.w3.org/2000/svg" fill="none" viewBox="0 0 720 500" height="500" width="720">
<mask height="500" width="720" y="0" x="0" maskUnits="userSpaceOnUse" style="mask-type:luminance" id="mask0_464_1697">
<path fill="white" d="M708 0H12C5.37258 0 0 5.37258 0 12V488C0 494.627 5.37257 500 12 500H708C714.627 500 720 494.627 720 488V12C720 5.37258 714.627 0 708 0Z"></path>
</mask>
<g mask="url(#mask0_464_1697)">
<path fill="#E6F4FF" d="M708 0H12C5.37258 0 0 5.37258 0 12V488C0 494.627 5.37257 500 12 500H708C714.627 500 720 494.627 720 488V12C720 5.37258 714.627 0 708 0Z"></path>
</g>
<mask height="500" width="720" y="0" x="0" maskUnits="userSpaceOnUse" style="mask-type:luminance" id="mask1_464_1697">
<path fill="white" d="M708 0H12C5.37258 0 0 5.37258 0 12V488C0 494.627 5.37257 500 12 500H708C714.627 500 720 494.627 720 488V12C720 5.37258 714.627 0 708 0Z"></path>
</mask>
<g mask="url(#mask1_464_1697)">
<path stroke-miterlimit="10" stroke="#D4E8F7" d="M-456.117 599.75C-447.897 551.938 -401.457 523.437 -356.637 517.875C-311.817 512.25 -266.157 523.187 -220.857 523.187C-99.4772 523.125 14.9428 436.125 54.6628 313.688C67.3828 274.438 72.9628 232.625 85.3828 193.25C97.8028 153.875 118.863 115.563 153.063 96.8125C202.263 69.875 263.883 90.625 313.503 120.75C363.123 150.875 409.623 190.75 464.643 204.562C536.943 222.688 612.003 191.5 667.323 141.188C722.583 90.875 761.643 23.25 799.803 -43.25"></path>
<path stroke-miterlimit="10" stroke="#D4E8F7" d="M-458.82 595.125C-449.82 547.563 -403.5 519.125 -358.62 513.375C-339.24 510.875 -319.62 511.5 -300 513.187C-274.26 515.375 -248.46 519.25 -222.84 519.812C-170.58 521 -119.64 507.062 -74.8803 480C-40.3203 459.125 -9.54029 431.562 14.9997 398.5C32.5797 375 46.5597 348.5 56.3397 319.75C60.7197 306.875 64.3197 293.687 67.6197 280.375C74.3397 253.312 79.8597 225.813 88.5597 199.625C98.4597 169.938 113.4 141.187 135.6 121.625C142.5 115.5 150 110.25 158.22 106.125C192.72 88.875 232.62 94.8125 270.78 109.5C287.28 115.875 303.48 123.812 318.54 132.375C335.4 141.937 351.9 152.25 368.34 162.062C400.62 181.437 432.48 199.25 466.98 205.75C489.42 209.937 511.56 208.875 533.46 203.75C577.98 193.375 621.72 165.687 658.2 130.375C668.22 120.687 677.76 110.5 687 99.875C728.04 52.6875 762.36 -1.875 796.2 -53.3125"></path>
<path stroke-miterlimit="10" stroke="#D4E8F7" d="M-461.523 590.438C-451.683 543.125 -405.543 514.687 -360.603 508.75C-341.163 506.187 -321.543 506.812 -301.863 508.562C-276.123 510.875 -250.323 515.125 -224.763 516.312C-172.623 518.75 -121.743 507.063 -76.5634 481.125C-41.6434 461.125 -10.3834 434.875 15.1166 403.063C33.3566 380.313 47.8766 354.25 58.0766 325.687C62.6366 312.937 66.3566 299.75 69.8366 286.437C76.8566 259.437 82.6766 231.875 91.7366 205.937C102.057 176.437 117.537 148.375 140.457 129.75C147.537 124 155.097 119.062 163.377 115.312C198.057 99.625 237.417 107 275.517 121.75C292.077 128.125 308.397 135.812 323.637 143.812C340.677 152.75 357.357 162.125 373.737 170.75C405.897 187.875 436.917 202.938 469.437 206.688C490.497 209.125 510.597 206.312 530.817 199.812C571.797 186.5 613.377 156.312 649.257 119.375C659.097 109.25 668.637 98.625 677.937 87.75C719.397 39.125 756.297 -14.9375 792.717 -63.625"></path>
<path stroke-miterlimit="10" stroke="#D4E8F7" d="M-464.219 585.75C-453.539 538.687 -407.579 510.25 -362.579 504.187C-343.139 501.562 -323.399 502.125 -303.719 504C-277.919 506.5 -252.239 511.125 -226.679 512.875C-174.599 516.562 -123.899 507.125 -78.2387 482.312C-42.9587 463.187 -11.1587 438.25 15.2413 407.688C34.2013 385.688 49.2012 360.062 59.8212 331.625C64.5612 318.937 68.4612 305.875 72.1212 292.5C79.4412 265.562 85.5613 237.938 94.9813 212.188C105.721 182.875 121.681 155.5 145.381 137.813C152.641 132.438 160.261 127.813 168.541 124.5C203.341 110.375 242.221 119.25 280.261 134C296.881 140.438 313.261 147.813 328.681 155.25C345.901 163.563 362.701 172 379.081 179.5C411.121 194.25 441.361 206.687 471.841 207.687C491.581 208.312 509.641 203.875 528.061 195.938C565.501 179.813 604.921 146.938 640.141 108.438C649.801 97.8125 659.281 86.875 668.641 75.6875C710.461 25.625 749.941 -27.9375 789.061 -73.8125"></path>
<path stroke-miterlimit="10" stroke="#D4E8F7" d="M-466.922 581.062C-455.402 534.312 -409.622 505.812 -364.502 499.625C-345.002 496.937 -325.262 497.437 -305.522 499.5C-279.722 502.125 -254.042 507.125 -228.542 509.5C-176.582 514.375 -125.942 507.25 -79.9219 483.625C-44.2219 465.375 -11.8819 441.812 15.2981 412.438C35.0381 391.188 50.4581 366 61.4381 337.75C66.3581 325.187 70.4381 312.125 74.2181 298.75C81.8381 271.812 88.2581 244.25 98.0981 218.625C109.258 189.562 125.698 162.75 150.178 146.125C157.618 141.062 165.298 136.875 173.638 133.875C208.618 121.313 246.898 131.687 284.998 146.437C301.618 152.937 318.178 160 333.718 166.937C351.118 174.687 368.098 182.125 384.358 188.5C416.278 201 445.738 210.625 474.118 208.937C492.538 207.812 508.558 201.625 525.238 192.25C559.198 173.25 596.338 137.813 631.018 97.75C640.558 86.6875 649.978 75.3125 659.398 63.8125C701.578 12.375 743.638 -40.8125 785.398 -83.8125"></path>
<path stroke-miterlimit="10" stroke="#D4E8F7" d="M-469.625 576.375C-457.265 529.875 -411.665 501.375 -366.485 495.062C-346.985 492.312 -327.185 492.813 -307.385 494.938C-281.585 497.688 -255.905 503.062 -230.465 506.062C-178.625 512.187 -128.105 507.25 -81.605 484.812C-45.545 467.437 -12.665 445.25 15.4149 417.125C35.8749 396.625 51.775 371.813 63.175 343.75C68.275 331.25 72.535 318.25 76.435 304.938C84.355 278.063 91.0749 250.437 101.275 225.062C112.855 196.187 129.775 170.063 155.035 154.375C162.595 149.688 170.395 145.812 178.735 143.187C213.835 132.25 251.635 144 289.675 158.875C306.355 165.375 323.035 172.188 338.755 178.563C356.335 185.688 373.435 192.187 389.695 197.375C421.495 207.562 450.295 214.5 476.515 210.062C493.675 207.187 507.535 199.25 522.535 188.5C553.015 166.562 587.935 128.625 622.015 86.9375C631.375 75.4375 640.795 63.6875 650.275 51.875C692.815 -0.999991 737.515 -53.6875 781.915 -93.875"></path>
<path stroke-miterlimit="10" stroke="#D4E8F7" d="M-472.375 571.75C-459.175 525.5 -413.755 497.062 -368.515 490.562C-348.955 487.75 -329.095 488.187 -309.295 490.437C-283.435 493.375 -257.875 499.125 -232.435 502.688C-180.655 510 -130.255 507.375 -83.335 486.062C-46.915 469.625 -13.435 448.75 15.485 421.812C36.725 402.062 53.045 377.688 64.865 349.813C70.085 337.375 74.525 324.438 78.665 311.125C86.885 284.313 93.965 256.625 104.465 231.438C116.465 202.813 133.865 177.25 159.905 162.562C167.645 158.187 175.505 154.688 183.905 152.438C219.125 143.063 256.385 156.313 294.425 171.188C311.165 177.75 327.965 184.25 343.805 190.062C361.565 196.562 378.785 202.125 395.045 206.188C426.725 214.125 454.925 218.187 478.925 211.125C494.885 206.437 506.585 196.813 519.785 184.625C546.725 159.813 579.485 119.25 612.965 76C622.145 64 631.565 51.875 641.105 39.8125C684.065 -14.5 731.285 -66.6875 778.325 -104.125"></path>
<path stroke-miterlimit="10" stroke="#D4E8F7" d="M-475.078 567.063C-461.038 521.125 -415.798 492.625 -370.498 485.938C-350.938 483.063 -331.018 483.5 -311.158 485.875C-285.298 488.938 -259.738 495.063 -234.358 499.25C-182.698 507.813 -132.358 507.437 -85.0181 487.25C-48.2381 471.688 -14.1581 452.188 15.6019 426.438C37.5619 407.438 54.3619 383.5 66.6019 355.812C72.0019 343.5 76.6219 330.562 80.8819 317.25C89.4019 290.437 96.7819 262.75 107.642 237.75C120.062 209.313 137.942 184.375 164.762 170.75C172.622 166.75 180.602 163.563 189.002 161.688C224.402 153.875 261.122 168.625 299.102 183.5C315.842 190.062 332.822 196.312 348.782 201.562C366.662 207.437 384.122 212.063 400.322 214.938C431.882 220.563 459.482 221.75 481.202 212.125C496.022 205.563 505.442 194.313 516.962 180.75C540.422 153 570.962 109.937 603.842 65.0625C612.902 52.625 622.202 40.125 631.862 27.75C675.182 -28 725.042 -79.75 774.722 -114.312"></path>
<path stroke-miterlimit="10" stroke="#D4E8F7" d="M-477.781 562.375C-462.901 516.688 -417.841 488.187 -372.421 481.375C-352.801 478.437 -332.821 478.812 -312.961 481.312C-287.101 484.562 -261.541 491.063 -236.281 495.813C-184.741 505.625 -134.521 507.5 -86.7012 488.5C-49.5612 473.812 -14.9412 455.688 15.7188 431.125C38.4588 412.875 55.6788 389.375 68.3388 361.813C73.9188 349.563 78.7188 336.688 83.1588 323.375C91.9788 296.625 99.6588 268.875 110.879 244.062C123.719 215.812 142.019 191.5 169.679 178.875C177.719 175.188 185.759 172.375 194.219 170.938C229.739 164.688 265.919 180.875 303.899 195.812C320.699 202.437 337.799 208.375 353.939 213.125C371.999 218.438 389.579 222.062 405.779 223.812C437.219 227.187 464.339 225.375 483.719 213.25C497.399 204.75 504.599 191.938 514.319 177C534.239 146.313 562.619 100.75 594.839 54.25C603.719 41.375 613.019 28.4375 622.739 15.8125C666.419 -41.375 718.859 -92.625 771.179 -124.375"></path>
<path stroke-miterlimit="10" stroke="#D4E8F7" d="M-480.477 557.688C-464.757 512.25 -419.877 483.75 -374.397 476.813C-354.777 473.813 -334.737 474.125 -314.817 476.75C-288.957 480.125 -263.457 487 -238.197 492.438C-186.717 503.438 -136.617 507.625 -88.3765 489.75C-50.8765 475.937 -15.6565 459.188 15.8435 435.875C39.3635 418.438 57.0035 395.312 70.0835 367.938C75.8435 355.813 80.7635 342.938 85.3835 329.625C94.5635 302.938 102.484 275.125 114.064 250.563C127.324 222.563 146.104 198.812 174.544 187.25C182.704 183.937 190.864 181.5 199.324 180.375C234.964 175.687 270.664 193.375 308.584 208.312C325.444 214.937 342.604 220.625 358.924 224.812C377.164 229.5 394.864 232.188 411.004 232.75C442.324 233.813 468.844 228.875 486.004 214.437C498.484 203.937 503.464 189.625 511.504 173.25C527.944 139.625 554.044 91.5 585.724 43.4375C594.484 30.125 603.724 16.8125 613.504 3.81251C657.544 -54.8125 712.624 -105.562 767.584 -134.562"></path>
<path stroke-miterlimit="10" stroke="#D4E8F7" d="M-483.18 553C-466.68 507.813 -421.92 479.375 -376.38 472.25C-356.7 469.187 -336.66 469.5 -316.74 472.187C-290.82 475.75 -265.38 482.938 -240.18 489C-188.82 501.25 -138.84 507.625 -90.1197 490.937C-52.1997 478 -16.3797 462.688 15.9003 440.5C40.2003 423.813 58.2603 401.125 71.7603 373.875C77.7003 361.813 82.8003 349 87.5403 335.687C97.0203 309 105.24 281.188 117.18 256.812C130.86 229 150.06 205.812 179.34 195.312C187.68 192.312 195.9 190.25 204.42 189.5C240.24 186.438 275.34 205.5 313.26 220.562C330.12 227.25 347.46 232.625 363.9 236.25C382.32 240.312 400.14 242.125 416.28 241.5C447.42 240.313 473.4 232.063 488.28 215.438C499.62 202.813 502.38 187.125 508.62 169.375C521.52 132.813 545.46 82.1875 576.54 32.5C585.12 18.6875 594.3 5.0625 604.2 -8.25C648.66 -68.3125 706.26 -118.562 763.92 -144.75"></path>
<path stroke-miterlimit="10" stroke="#D4E8F7" d="M-485.883 548.375C-468.543 503.5 -423.963 475 -378.363 467.75C-358.683 464.625 -338.523 464.875 -318.603 467.75C-292.683 471.438 -267.243 479.062 -242.103 485.687C-190.803 499.187 -140.943 507.812 -91.8027 492.25C-53.5227 480.25 -17.1027 466.25 16.0173 445.25C41.0373 429.375 59.5773 407.062 73.4973 380C79.6173 368.062 84.8973 355.25 89.8173 341.937C99.5973 315.312 108.117 287.5 120.477 263.25C134.577 235.688 154.197 213.063 184.377 203.563C192.837 200.875 201.177 199.187 209.757 198.812C245.697 197.312 280.317 217.875 318.177 232.938C335.097 239.688 352.557 244.75 369.177 247.875C387.777 251.312 405.777 252.188 421.857 250.438C452.877 247 478.137 235.438 490.917 216.688C500.937 201.938 501.597 184.875 506.157 165.687C515.517 126.187 537.297 73.0625 567.777 21.8125C576.177 7.5625 585.357 -6.5 595.257 -20.0625C640.077 -81.5 700.257 -131.375 760.557 -154.688"></path>
<path stroke-miterlimit="10" stroke="#D4E8F7" d="M-488.578 543.687C-470.398 499.062 -425.998 470.563 -380.278 463.125C-360.538 459.938 -340.378 460.125 -320.398 463.125C-294.478 466.938 -269.098 474.937 -243.958 482.187C-192.778 496.875 -142.978 507.812 -93.4781 493.437C-54.8381 482.312 -17.8181 469.75 16.0819 449.875C41.8819 434.75 60.8419 412.875 75.1819 386C81.4819 374.125 86.9419 361.375 91.9819 348.063C102.062 321.5 110.882 293.625 123.602 269.625C138.062 242.25 158.162 220.188 189.182 211.813C197.822 209.5 206.222 208.125 214.802 208.125C250.862 208.188 284.942 230.25 322.802 245.313C339.782 252.063 357.362 256.875 374.102 259.437C392.882 262.312 411.002 262.187 427.082 259.25C457.982 253.562 482.462 238.625 493.202 217.75C501.902 200.813 500.462 182.438 503.282 161.875C509.102 119.438 528.722 63.75 558.602 10.9375C566.882 -3.74999 576.002 -18.1875 585.962 -32.0625C631.142 -94.9375 693.962 -144.313 756.902 -164.812"></path>
<path stroke-miterlimit="10" stroke="#D4E8F7" d="M-491.336 539C-472.316 494.625 -428.156 466.125 -382.316 458.562C-362.576 455.312 -342.296 455.5 -322.316 458.562C-296.336 462.562 -271.016 470.875 -245.936 478.75C-194.876 494.687 -145.196 507.875 -95.2159 494.625C-56.2159 484.375 -18.5959 473.188 16.1441 454.563C42.7241 440.25 62.1041 418.75 76.8641 392C83.3441 380.187 88.9241 367.5 94.2041 354.188C104.584 327.625 113.704 299.75 126.784 275.937C141.664 248.812 162.184 227.25 194.044 219.938C202.804 217.937 211.324 217 219.964 217.375C256.204 219 289.744 242.5 327.604 257.625C344.584 264.438 362.344 268.937 379.204 270.937C398.164 273.187 416.404 272.187 432.484 268.062C463.204 260.125 486.844 241.875 495.664 218.812C502.924 199.75 499.504 180 500.644 158C502.924 112.625 520.324 54.4375 549.604 3.8147e-06C557.704 -15.1875 566.824 -30 576.844 -44.125C622.444 -108.438 687.784 -157.313 753.364 -175.062"></path>
<path stroke-miterlimit="10" stroke="#D4E8F7" d="M-494.031 534.313C-474.171 490.25 -430.191 461.688 -384.291 454C-364.491 450.688 -344.211 450.813 -324.171 454.063C-298.191 458.188 -272.931 466.938 -247.911 475.375C-196.911 492.562 -147.351 508 -96.9513 495.875C-57.5913 486.5 -19.3113 476.75 16.2087 459.25C43.5687 445.75 63.3687 424.625 78.5487 398.063C85.2087 386.375 90.9687 373.688 96.3687 360.438C107.049 333.938 116.469 306 129.909 282.375C145.209 255.438 166.149 234.438 198.849 228.188C207.789 226.5 216.369 225.938 225.009 226.688C261.369 229.875 294.369 254.875 332.229 270C349.269 276.813 367.089 281.063 384.189 282.5C403.269 284.125 421.689 282.188 437.709 276.875C468.309 266.75 490.989 245.125 497.889 219.875C503.709 198.688 498.369 177.563 497.709 154.188C496.449 105.938 511.689 45.1875 540.369 -10.875C548.349 -26.5 557.349 -41.6875 567.489 -56.1875C613.449 -121.937 681.429 -170.375 749.649 -185.25"></path>
<path stroke-miterlimit="10" stroke="#D4E8F7" d="M-496.734 529.625C-476.034 485.813 -432.234 457.313 -386.274 449.438C-366.474 446.063 -346.074 446.187 -326.034 449.5C-300.054 453.813 -274.794 462.875 -249.834 471.938C-198.954 490.313 -149.514 508 -98.6344 497.125C-58.9144 488.688 -20.0344 480.313 16.3256 463.938C44.5256 451.25 64.7456 430.5 80.2856 404.062C87.1256 392.437 93.0656 379.875 98.5856 366.562C109.566 340.125 119.346 312.125 133.086 288.75C148.806 262 170.226 241.5 203.706 236.437C212.766 235.062 221.526 234.875 230.166 236C266.706 240.75 299.166 267.25 336.966 282.438C354.066 289.313 372.006 293.25 389.226 294.188C408.486 295.188 427.086 292.375 443.046 285.875C473.526 273.5 495.186 248.625 500.286 221.125C504.606 197.812 497.346 175.313 495.006 150.563C490.146 99.375 503.286 36.0625 531.366 -21.5625C539.166 -37.625 548.166 -53.25 558.366 -68C604.686 -135.187 675.245 -183.125 746.105 -195.188"></path>
<path stroke-miterlimit="10" stroke="#D4E8F7" d="M-499.445 525C-477.905 481.438 -434.285 452.938 -388.205 444.938C-368.345 441.5 -347.945 441.563 -327.845 445C-301.805 449.438 -276.605 458.938 -251.705 468.562C-200.945 488.187 -151.565 508.125 -100.265 498.375C-60.1253 490.813 -20.7052 483.875 16.4948 468.625C45.4748 456.75 66.1148 436.312 82.0748 410.125C89.0948 398.625 95.2148 386.063 100.915 372.75C112.195 346.313 122.275 318.312 136.375 295.125C152.515 268.625 174.355 248.563 208.675 244.625C217.855 243.563 226.735 243.75 235.375 245.25C272.035 251.625 303.955 279.5 341.755 294.75C358.915 301.625 376.975 305.312 394.315 305.687C413.755 306.125 432.475 302.313 448.435 294.625C478.795 280 499.435 251.938 502.735 222.125C505.495 196.813 496.315 172.812 492.295 146.625C483.775 92.5 494.875 26.6875 522.355 -32.5625C529.975 -49.0625 538.975 -65.0625 549.235 -80.125C595.855 -148.75 668.995 -196.25 742.555 -205.5"></path>
<path stroke-miterlimit="10" stroke="#D4E8F7" d="M-502.141 520.312C-479.761 477 -436.321 448.5 -390.181 440.312C-370.321 436.813 -349.861 436.812 -329.701 440.375C-303.661 445 -278.521 454.812 -253.621 465.062C-202.921 485.937 -153.721 508.125 -101.941 499.5C-61.4406 492.812 -21.3606 487.375 16.6194 473.187C46.3794 462.125 67.4394 442.062 83.8194 416.062C90.9594 404.625 97.2594 392.125 103.139 378.812C114.779 352.437 125.099 324.438 139.559 301.375C156.119 275.063 178.379 255.562 213.539 252.687C222.899 251.937 231.839 252.562 240.539 254.375C277.319 262.312 308.759 291.687 346.499 306.937C363.659 313.875 381.899 317.25 399.359 317.062C418.979 316.875 437.819 312.187 453.779 303.312C484.019 286.437 503.639 255.188 505.079 223.063C506.279 195.688 495.239 170.25 489.539 142.687C477.539 85.6875 486.359 17.3125 513.299 -43.5625C520.799 -60.5625 529.679 -76.9375 540.059 -92.25C587.039 -162.188 662.759 -209.187 738.959 -215.625"></path>
<path stroke-miterlimit="10" stroke="#D4E8F7" d="M-504.836 515.625C-481.616 472.625 -438.356 444.062 -392.156 435.75C-372.236 432.187 -351.716 432.187 -331.556 435.875C-305.516 440.625 -280.376 450.812 -255.536 461.687C-204.956 483.75 -155.816 508.25 -103.616 500.75C-62.7559 494.937 -22.0759 490.937 16.7441 477.937C47.2841 467.687 68.7641 448 85.5641 422.125C92.8841 410.812 99.3641 398.313 105.424 385C117.364 358.688 127.984 330.625 142.864 307.813C159.844 281.75 182.524 262.625 218.524 261C228.004 260.562 237.064 261.562 245.764 263.812C282.724 273.312 313.564 304.187 351.304 319.437C368.524 326.437 386.884 329.5 404.524 328.75C424.324 327.938 443.344 322.375 459.244 312.313C489.364 293.25 507.964 258.813 507.604 224.313C507.304 194.938 494.404 168 486.904 139C471.364 79.0625 478.024 8.12502 504.304 -54.25C511.624 -71.6875 520.504 -88.4375 530.944 -104.125C578.404 -175.563 656.704 -222.125 735.544 -225.75"></path>
<path stroke-miterlimit="10" stroke="#D4E8F7" d="M-507.539 510.938C-483.539 468.187 -440.399 439.688 -394.139 431.188C-374.219 427.563 -353.639 427.5 -333.419 431.312C-307.379 436.187 -282.239 446.812 -257.459 458.25C-206.999 481.562 -157.919 508.312 -105.359 502C-64.1391 497.062 -22.8591 494.5 16.8009 482.625C48.1209 473.187 70.0209 453.875 87.1809 428.187C94.6809 416.937 101.341 404.5 107.521 391.188C119.761 364.875 130.681 336.813 145.921 314.188C163.321 288.313 186.481 269.688 223.261 269.188C232.921 269.063 242.041 270.438 250.801 273.063C287.881 284.125 318.241 316.437 355.921 331.75C373.201 338.75 391.681 341.562 409.441 340.312C429.421 338.875 448.621 332.437 464.401 321.125C494.461 299.875 511.981 262.312 509.821 225.375C507.961 194.062 493.201 165.562 484.021 135.187C464.941 72.3125 469.441 -1.12501 495.121 -65.125C502.261 -83 511.141 -100.125 521.581 -116.125C569.401 -189 650.341 -235.063 731.821 -235.938"></path>
<path stroke-miterlimit="10" stroke="#D4E8F7" d="M-510.305 506.312C-485.465 463.812 -442.505 435.312 -396.125 426.687C-376.145 423 -355.505 422.875 -335.285 426.812C-309.185 431.875 -284.165 442.812 -259.445 454.875C-209.045 479.437 -160.145 508.375 -107.105 503.25C-65.5247 499.25 -23.5847 498.187 16.7953 487.312C48.8953 478.812 71.2153 459.75 88.7953 434.187C96.4753 423 103.255 410.625 109.615 397.312C122.155 371.062 133.375 342.937 148.975 320.5C166.795 294.812 190.375 276.687 227.995 277.312C237.775 277.5 247.015 279.25 255.775 282.25C292.975 294.875 322.795 328.687 360.475 344.062C377.755 351.125 396.355 353.625 414.295 351.812C434.455 349.812 453.775 342.375 469.555 329.937C499.495 306.437 515.995 265.812 511.975 226.437C508.555 193.125 491.935 163.187 481.015 131.375C458.395 65.6249 460.735 -10.3751 485.815 -76.0001C492.835 -94.3126 501.595 -111.875 512.155 -128.125C560.335 -202.438 643.855 -248 727.975 -246.063"></path>
<path stroke-miterlimit="10" stroke="#D4E8F7" d="M-513.008 501.625C-476.228 441.187 -404.528 408.812 -337.148 422.25C-257.828 438.062 -188.468 510.375 -108.788 504.437C-66.8479 501.312 -24.3079 501.687 16.9121 491.937C64.1321 480.812 90.4722 447.187 111.892 403.437C139.432 347.25 160.912 282.125 232.912 285.5C284.992 287.937 318.772 337.375 365.272 356.375C402.112 371.437 445.192 364.5 475.012 338.75C504.832 313 520.372 269.312 514.492 227.5C509.572 192.25 491.092 160.75 478.432 127.5C444.952 39.6249 454.552 -64.4376 503.152 -140.188C551.752 -215.938 637.792 -261.063 724.612 -256.25"></path>
<path stroke-miterlimit="10" stroke="#D4E8F7" d="M-508.742 510.25C-471.422 454.563 -400.142 424.438 -333.242 436.75C-299.762 442.875 -268.022 458.438 -236.702 473.5C-204.602 489 -172.982 504.063 -139.982 508.438C-129.362 509.875 -118.562 510.188 -107.642 509C-66.5422 504.563 -25.0822 503.5 15.9578 493.438C62.4578 482.063 89.3378 449.813 111.478 408.5C116.578 399 121.498 389.313 126.538 379.75C141.298 351.625 157.018 325 181.918 310.188C195.838 301.938 212.578 297.25 233.398 298C284.818 299.813 318.418 345 363.478 361.25C369.478 363.375 375.598 364.938 381.778 365.938C412.558 370.813 445.138 361.563 468.898 339.813C497.458 313.688 512.218 270.438 506.878 229.063C502.378 194 485.038 162.313 473.398 129.063C453.298 71.6877 451.018 7.75018 465.478 -50.3748C473.278 -81.4373 485.818 -110.75 502.978 -136.625C534.238 -183.875 580.258 -218.812 631.918 -237.25C661.618 -247.875 693.178 -252.875 724.798 -251.437"></path>
<path stroke-miterlimit="10" stroke="#D4E8F7" d="M-504.484 518.938C-466.624 467.938 -395.764 440.125 -329.344 451.375C-295.984 457 -264.364 471.125 -233.344 484.5C-201.544 498.25 -170.584 511.313 -138.124 514.313C-127.684 515.313 -117.124 515.188 -106.444 513.688C-66.2444 508 -25.7444 505.5 15.0556 495C60.8956 483.375 88.1956 452.375 111.116 413.563C116.396 404.625 121.556 395.563 126.716 386.625C141.956 360.375 157.856 335.75 182.756 322.125C196.736 314.5 213.356 310.063 233.816 310.563C284.576 311.75 318.056 352.75 361.676 366.25C367.496 368 373.376 369.25 379.376 369.938C409.016 373.25 440.156 363.063 462.836 341.063C490.076 314.563 504.176 271.75 499.256 230.75C495.116 195.875 479.036 164.063 468.416 130.75C450.056 73.3752 449.036 9.68763 464.276 -47.7499C472.556 -78.5624 485.516 -107.5 502.916 -132.937C534.656 -179.375 580.736 -213.562 632.456 -231.937C662.096 -242.5 693.535 -247.625 725.095 -246.5"></path>
<path stroke-miterlimit="10" stroke="#D4E8F7" d="M-500.281 527.625C-461.881 481.375 -391.441 455.75 -325.441 465.937C-292.261 471 -260.761 483.75 -230.041 495.5C-198.541 507.5 -168.181 518.625 -136.381 520.187C-126.121 520.687 -115.861 520.187 -105.361 518.375C-66.0012 511.375 -26.5812 507.375 13.9788 496.562C59.0988 484.562 86.9388 455 110.519 418.625C115.979 410.25 121.319 401.812 126.659 393.5C142.379 369.187 158.519 346.5 183.359 334.062C197.399 327 213.959 322.875 234.059 323.125C284.159 323.625 317.459 360.562 359.639 371.187C365.219 372.625 370.979 373.437 376.679 373.812C405.179 375.625 434.819 364.5 456.419 342.125C482.399 315.25 495.779 272.875 491.339 232.25C487.619 197.5 472.679 165.625 463.079 132.25C446.459 74.8122 446.519 11.4997 462.659 -45.2503C471.359 -75.8753 484.799 -104.375 502.439 -129.375C534.659 -175.063 580.799 -208.438 632.639 -226.813C662.219 -237.313 693.599 -242.5 725.039 -241.688"></path>
<path stroke-miterlimit="10" stroke="#D4E8F7" d="M-496.023 536.313C-457.083 494.813 -387.063 471.438 -321.543 480.5C-288.483 485 -257.163 496.438 -226.743 506.438C-195.603 516.75 -165.783 525.813 -134.583 525.938C-124.563 526 -114.483 525.125 -104.223 522.938C-65.7634 514.75 -27.3034 509.188 13.0166 498.063C57.4166 485.813 85.7966 457.563 110.097 423.625C115.737 415.813 121.257 408 126.777 400.375C142.977 377.938 159.357 357.25 184.137 345.938C198.237 339.5 214.737 335.75 234.477 335.625C283.917 335.375 317.097 368.188 357.777 376.063C363.177 377.125 368.697 377.625 374.217 377.688C401.577 377.938 429.777 365.875 450.297 343.25C474.957 316 487.557 274.063 483.657 233.875C480.297 199.313 466.617 167.25 458.037 133.813C443.157 76.3751 444.417 13.3126 461.337 -42.6874C470.517 -73.1249 484.317 -101.187 502.257 -125.812C534.957 -170.687 581.217 -203.312 633.057 -221.625C662.577 -232.062 693.837 -237.375 725.217 -236.875"></path>
<path stroke-miterlimit="10" stroke="#D4E8F7" d="M-491.766 545C-452.226 508.187 -382.746 487.125 -317.646 495.062C-284.766 499 -253.506 509.062 -223.386 517.375C-192.546 525.937 -163.386 533.062 -132.726 531.75C-122.886 531.375 -113.046 530.062 -103.086 527.562C-65.4656 518.125 -28.0856 511.062 11.9944 499.562C55.6744 487 84.5944 460.062 109.614 428.625C115.434 421.312 121.194 414.187 126.834 407.187C143.454 386.625 160.074 368 184.914 357.812C199.074 352 215.454 348.375 234.894 348.125C283.674 347.5 316.674 375.875 355.914 381C361.134 381.687 366.414 381.812 371.694 381.562C397.914 380.25 424.674 367.312 444.114 344.375C467.514 316.687 479.394 275.25 475.974 235.437C473.034 201.062 460.494 168.875 452.994 135.375C439.914 77.9373 442.314 15.1873 460.014 -40.1877C469.674 -70.4377 483.894 -98.0627 502.074 -122.25C535.194 -166.313 581.574 -198.125 633.534 -216.438C663.054 -226.813 694.134 -232.25 725.394 -232.063"></path>
<path stroke-miterlimit="10" stroke="#D4E8F7" d="M-487.555 553.625C-447.475 521.563 -378.415 502.688 -313.735 509.625C-280.975 513 -249.895 521.688 -220.075 528.375C-189.535 535.25 -160.975 540.313 -130.975 537.625C-121.315 536.75 -111.715 535.125 -101.995 532.25C-65.2746 521.5 -28.8547 513 10.9853 501.125C53.9453 488.313 83.4054 462.688 109.145 433.688C115.145 426.938 121.085 420.438 126.905 414.063C144.005 395.438 160.865 378.75 185.645 369.75C199.925 364.562 216.185 361.187 235.265 360.687C283.385 359.437 316.265 383.625 354.005 385.937C359.045 386.25 364.085 386.063 369.125 385.5C394.205 382.625 419.525 368.813 437.885 345.563C459.965 317.5 471.125 276.562 468.185 237.062C465.605 202.875 454.265 170.5 447.785 137C436.445 79.5625 440.045 17.125 458.525 -37.5625C468.665 -67.5625 483.305 -94.8125 501.785 -118.562C535.385 -161.875 581.825 -192.875 633.845 -211.125C663.305 -221.5 694.325 -227 725.465 -227.062"></path>
<path stroke-miterlimit="10" stroke="#D4E8F7" d="M-483.305 562.312C-442.685 534.937 -374.045 518.375 -309.845 524.187C-277.265 527 -246.245 534.313 -216.785 539.313C-186.545 544.438 -158.645 547.5 -129.185 543.438C-119.765 542.125 -110.345 540.062 -100.865 536.937C-64.9847 524.937 -29.6447 514.938 9.95527 502.688C52.2553 489.625 82.1953 465.312 108.655 438.812C114.835 432.625 120.955 426.687 126.955 421C144.475 404.25 161.635 389.625 186.355 381.75C200.695 377.187 216.895 374.062 235.555 373.312C283.015 371.437 315.775 391.438 352.015 390.938C356.875 390.875 361.735 390.312 366.535 389.437C390.415 385 414.355 370.25 431.635 346.75C452.455 318.312 462.895 277.812 460.435 238.75C458.275 204.75 448.195 172.25 442.675 138.688C433.195 81.1875 437.935 19.0625 457.135 -34.875C467.755 -64.6875 482.755 -91.5 501.535 -114.875C535.615 -157.375 582.175 -187.625 634.255 -205.875C663.655 -216.188 694.555 -221.75 725.635 -222.188"></path>
<path stroke-miterlimit="10" stroke="#D4E8F7" d="M-479.039 571C-437.879 548.375 -369.659 534.188 -305.939 538.75C-273.479 541.063 -242.639 547 -213.419 550.25C-183.539 553.625 -156.179 554.688 -127.319 549.25C-118.079 547.5 -108.899 545.063 -99.6591 541.563C-64.6191 528.313 -30.299 516.875 9.06096 504.25C50.641 490.938 81.181 467.938 108.241 443.875C114.601 438.25 120.901 432.938 127.081 427.875C145.021 413.063 162.481 400.375 187.141 393.625C201.541 389.688 217.621 386.75 235.981 385.813C282.781 383.313 315.421 399.125 350.161 395.875C354.781 395.438 359.461 394.563 364.021 393.375C386.761 387.375 409.201 371.75 425.461 347.875C444.961 319.062 454.741 279 452.701 240.312C450.901 206.437 442.021 173.875 437.521 140.25C429.781 82.75 435.721 20.9375 455.761 -32.375C466.861 -62 482.281 -88.375 501.301 -111.313C535.861 -153.063 582.481 -182.5 634.621 -200.687C663.961 -210.937 694.741 -216.625 725.761 -217.375"></path>
<path stroke-miterlimit="10" stroke="#D4E8F7" d="M-474.844 579.688C-433.144 561.75 -365.404 549.875 -302.044 553.313C-269.764 555.063 -238.984 559.625 -210.124 561.188C-180.544 562.875 -153.844 561.937 -125.584 555.062C-116.524 552.875 -107.584 550 -98.5837 546.188C-64.4437 531.625 -31.1437 518.75 8.03626 505.75C48.8963 492.187 79.9763 470.437 107.756 448.875C114.296 443.812 120.836 439.125 127.136 434.688C145.496 421.75 163.256 411.125 187.916 405.5C202.376 402.188 218.396 399.5 236.396 398.313C282.536 395.188 315.056 406.75 348.356 400.75C352.796 399.937 357.236 398.688 361.616 397.188C383.216 389.625 404.216 373.062 419.396 348.937C437.636 319.75 446.636 280.125 445.136 241.875C443.756 208.187 436.076 175.437 432.596 141.75C426.596 84.25 433.796 22.75 454.556 -29.875C466.136 -59.25 481.976 -85.25 501.236 -107.75C536.216 -148.687 582.956 -177.375 635.216 -195.5C664.496 -205.688 695.216 -211.5 726.116 -212.5"></path>
<path stroke-miterlimit="10" stroke="#D4E8F7" d="M-470.578 588.375C-428.338 575.188 -361.018 565.5 -298.138 567.875C-265.978 569.062 -235.378 572.25 -206.818 572.188C-177.538 572.125 -151.438 569.25 -123.778 560.875C-114.958 558.188 -106.198 554.938 -97.4381 550.813C-64.1381 535 -31.8581 520.688 7.02189 507.25C47.2219 493.437 78.8419 473 107.282 453.875C114.002 449.375 120.722 445.313 127.202 441.5C145.982 430.438 164.042 421.875 188.642 417.375C203.222 414.688 219.062 412.25 236.762 410.813C282.242 407.063 314.642 414.438 346.442 405.625C350.702 404.438 354.902 402.875 359.042 401.062C379.502 391.937 399.062 374.5 413.162 350.062C430.082 320.5 438.422 281.313 437.342 243.438C436.382 209.938 429.842 177.063 427.382 143.313C423.182 85.8125 431.522 24.5625 453.062 -27.3125C465.182 -56.5 481.322 -82.0625 500.882 -104.187C536.342 -144.312 583.142 -172.25 635.462 -190.375C664.682 -200.5 695.282 -206.375 726.062 -207.75"></path>
<path stroke-miterlimit="10" stroke="#D4E8F7" d="M-466.32 597C-423.54 588.562 -356.64 581.125 -294.24 582.437C-262.26 583.125 -231.78 584.875 -203.46 583.125C-174.54 581.375 -149.04 576.437 -121.92 566.687C-113.28 563.562 -104.76 559.937 -96.3003 555.437C-63.9003 538.312 -32.5803 522.562 6.0597 508.812C45.5397 494.75 77.7597 475.625 106.86 458.938C113.76 455 120.66 451.562 127.32 448.375C146.52 439.25 164.88 432.688 189.42 429.25C204.06 427.188 219.84 425 237.12 423.313C281.94 418.875 314.22 422.063 344.52 410.563C348.6 409 352.62 407.063 356.46 404.938C375.78 394.25 393.9 375.938 406.86 351.188C422.52 321.25 430.14 282.5 429.54 245C429 211.688 423.66 178.687 422.22 144.875C419.76 87.375 429.36 26.4375 451.62 -24.8125C464.22 -53.75 480.78 -78.9375 500.58 -100.625C536.52 -140 583.44 -167.125 635.82 -185.188C664.98 -195.25 695.52 -201.25 726.18 -202.938"></path>
<path stroke-miterlimit="10" stroke="#D4E8F7" d="M-462.125 605.688C-418.745 601.938 -352.325 596.812 -290.345 597C-258.485 597.125 -228.125 597.563 -200.165 594.063C-171.545 590.563 -146.645 583.688 -120.185 572.5C-111.725 568.938 -103.445 564.875 -95.225 560.062C-63.665 541.688 -33.425 524.5 4.97502 510.313C43.795 496 76.555 478.25 106.315 463.938C113.395 460.563 120.475 457.75 127.315 455.188C146.935 447.938 165.595 443.438 190.075 441.125C204.775 439.75 220.495 437.687 237.415 435.75C281.575 430.687 313.735 429.625 342.535 415.375C346.435 413.438 350.215 411.188 353.875 408.75C372.055 396.5 388.675 377.25 400.615 352.188C414.955 321.875 421.915 283.563 421.735 246.5C421.615 213.313 417.415 180.188 416.995 146.375C416.275 88.875 427.135 28.25 450.115 -22.3125C463.195 -51.0625 480.175 -75.8125 500.275 -97.0625C536.695 -135.625 583.675 -161.937 636.115 -180C665.215 -190.062 695.635 -196.125 726.235 -198.062"></path>
<path stroke-miterlimit="10" stroke="#D4E8F7" d="M-457.859 614.375C-413.939 615.375 -347.939 612.438 -286.439 611.563C-254.759 611.125 -224.519 610.187 -196.859 605.062C-168.539 599.813 -144.239 590.938 -118.379 578.375C-110.159 574.375 -102.059 569.875 -94.0794 564.75C-63.4194 545.062 -34.1394 526.5 4.02064 511.875C42.1206 497.313 75.5407 480.875 105.841 469.063C113.161 466.25 120.361 464.063 127.381 462.188C147.421 456.813 166.441 454.438 190.861 453.188C205.681 452.437 221.221 450.625 237.841 448.438C281.401 442.75 313.381 437.437 340.681 420.437C344.401 418.125 347.941 415.5 351.361 412.75C368.401 398.938 383.581 378.813 394.441 353.438C407.521 322.75 413.761 284.875 414.061 248.188C414.301 215.188 411.361 181.938 411.961 148.063C412.981 90.5 425.041 30.25 448.801 -19.625C462.361 -48.1875 479.701 -72.5 500.101 -93.3125C536.941 -131.062 584.041 -156.625 636.601 -174.625C665.701 -184.625 695.941 -190.813 726.481 -193.062"></path>
<path stroke-miterlimit="10" stroke="#D4E8F7" d="M-453.609 623.063C-409.149 628.75 -343.569 628.125 -282.549 626.125C-250.989 625.125 -220.869 622.812 -193.509 616C-165.489 609.062 -141.849 598.187 -116.529 584.187C-108.489 579.75 -100.629 574.813 -92.8894 569.375C-63.0694 548.375 -34.8694 528.375 3.05058 513.438C40.4906 498.625 74.4506 483.563 105.411 474.125C112.911 471.875 120.291 470.313 127.491 469.063C147.951 465.5 167.271 464.562 191.631 465.062C206.511 465.375 221.991 463.375 238.251 460.938C281.151 454.563 313.011 445.063 338.811 425.313C342.351 422.625 345.651 419.688 348.891 416.625C364.791 401.25 378.531 380.188 388.311 354.563C400.071 323.5 405.651 286.062 406.371 249.75C407.031 216.938 405.231 183.563 406.851 149.563C409.611 92 422.931 32.0625 447.471 -17.1875C461.571 -45.5 479.271 -69.4375 499.911 -89.875C537.231 -126.875 584.451 -151.625 637.011 -169.625C666.051 -179.562 696.231 -185.813 726.651 -188.375"></path>
<path stroke-miterlimit="10" stroke="#D4E8F7" d="M-449.398 631.687C-404.398 642.125 -339.298 643.562 -278.638 640.625C-247.258 639 -217.258 635.437 -190.198 626.875C-162.538 618.187 -139.438 605.375 -114.778 589.875C-106.918 584.937 -99.2984 579.687 -91.7984 573.875C-62.8784 551.625 -35.6384 530.187 2.04156 514.812C38.7616 499.812 73.3216 486 104.942 479C112.622 477.312 120.182 476.312 127.562 475.75C148.382 474.062 168.062 475.937 192.362 476.812C207.362 477.375 222.662 476 238.562 473.312C280.802 466.313 312.542 452.562 336.902 430.125C340.202 427.062 343.382 423.75 346.322 420.375C361.082 403.437 373.382 381.5 382.082 355.563C392.582 324.125 397.382 287.125 398.582 251.25C399.662 218.625 398.942 185.063 401.702 151.063C406.082 93.5 420.782 33.875 446.042 -14.6875C460.622 -42.8125 478.742 -66.3125 499.622 -86.3125C537.422 -122.5 584.702 -146.5 637.382 -164.438C666.362 -174.313 696.422 -180.688 726.722 -183.562"></path>
<path stroke-miterlimit="10" stroke="#D4E8F7" d="M-445.148 640.375C-399.608 655.563 -334.928 659.25 -274.748 655.25C-243.488 653.063 -213.668 648.125 -186.908 637.938C-159.548 627.562 -137.108 612.688 -112.988 595.813C-105.368 590.438 -97.9885 584.75 -90.6685 578.625C-62.5885 555.063 -36.3685 532.25 1.07154 516.438C37.1315 501.188 72.2315 488.813 104.512 484.125C112.372 483 120.111 482.75 127.671 482.688C148.911 482.438 168.892 486.813 193.132 488.813C208.192 490 223.431 488.813 238.971 485.938C280.551 478.25 312.112 460.25 335.032 435.125C338.152 431.687 341.092 428.062 343.792 424.375C357.412 405.875 368.272 383 375.892 356.813C385.072 325 389.212 288.437 390.892 252.938C392.392 220.438 392.872 186.813 396.592 152.75C402.772 95.1875 418.672 35.875 444.652 -12.0625C459.772 -39.9375 478.191 -63.0625 499.371 -82.625C537.591 -118 584.992 -141.25 637.732 -159.125C666.652 -168.938 696.592 -175.438 726.832 -178.625"></path>
<path stroke-miterlimit="10" stroke="#D4E8F7" d="M-440.883 649.063C-394.803 668.938 -330.543 674.937 -270.843 669.812C-239.763 667.062 -210.003 660.75 -183.543 648.875C-156.483 636.75 -134.583 620 -111.123 601.625C-103.683 595.813 -96.5428 589.688 -89.5228 583.25C-62.3428 558.375 -37.0828 534.188 0.0571759 517.938C35.3972 502.5 71.0972 491.438 104.037 489.125C112.077 488.563 119.997 488.812 127.737 489.5C149.397 491.5 169.677 497.625 193.857 500.625C208.977 502.5 224.157 501.5 239.337 498.375C280.257 490 311.637 467.813 333.117 439.938C336.057 436.125 338.757 432.125 341.277 428.125C353.697 408.062 363.117 384.313 369.717 357.75C377.637 325.5 381.057 289.438 383.157 254.313C385.077 222 386.697 188.25 391.497 154.125C399.417 96.5625 416.577 37.5625 443.277 -9.68751C458.877 -37.3125 477.717 -60.125 499.137 -79.25C537.837 -113.875 585.297 -136.313 638.157 -154.125C667.017 -163.875 696.897 -170.438 727.017 -173.938"></path>
<path stroke-miterlimit="10" stroke="#D4E8F7" d="M-436.688 657.75C-390.068 682.375 -326.228 690.562 -266.948 684.375C-235.988 681.062 -206.408 673.375 -180.248 659.812C-153.548 646 -132.247 627.187 -109.327 607.437C-102.067 601.187 -95.1675 594.625 -88.3875 587.875C-62.1675 561.625 -37.8075 536.187 -0.907497 519.5C33.7725 503.812 70.0125 493.688 103.552 494.25C111.832 494.375 119.932 495.062 127.852 496.438C149.932 500.25 170.512 508.562 194.692 512.625C209.872 515.187 224.932 514.312 239.812 511C280.072 502 311.332 475.563 331.312 445C334.072 440.813 336.532 436.5 338.812 432.188C350.092 410.563 358.072 385.938 363.592 359.063C370.192 326.438 373.012 290.812 375.532 256.125C377.872 224 380.692 190.063 386.512 155.938C396.172 98.3125 414.652 39.6875 442.012 -6.87499C458.152 -34.3125 477.352 -56.6875 499.012 -75.375C538.192 -109.188 585.772 -130.875 638.632 -148.687C667.432 -158.375 697.192 -165.063 727.252 -168.875"></path>
<path stroke-miterlimit="10" stroke="#D4E8F7" d="M-432.422 666.438C-385.202 695.75 -321.842 706.25 -263.042 698.938C-232.262 695.063 -202.742 686.063 -176.882 670.813C-150.482 655.25 -129.782 634.5 -107.522 613.313C-100.442 606.625 -93.7819 599.687 -87.2419 592.562C-61.8619 565.062 -38.5219 538.187 -1.92186 521.062C32.0981 505.187 68.8781 496.875 103.078 499.312C111.538 499.938 119.818 501.313 127.918 503.313C150.478 508.938 171.238 519.438 195.418 524.563C210.658 527.813 225.658 527.125 240.118 523.562C279.718 513.875 310.798 483.25 329.338 449.938C331.918 445.375 334.198 440.687 336.238 436.062C346.378 412.875 352.918 387.313 357.298 360.188C362.638 327.188 364.738 292 367.678 257.688C370.498 225.75 374.398 191.687 381.238 157.438C392.638 99.8125 412.438 41.5625 440.458 -4.4375C457.138 -31.625 476.638 -53.625 498.658 -71.875C538.318 -104.937 585.958 -125.75 638.938 -143.562C667.678 -153.25 697.378 -160 727.258 -164.125"></path>
<path stroke-miterlimit="10" stroke="#D4E8F7" d="M-428.156 675.063C-380.396 709.125 -317.516 721.875 -259.136 713.5C-228.476 709.063 -199.136 698.688 -173.576 681.75C-147.476 664.438 -127.376 641.75 -105.716 619.063C-98.8763 611.938 -92.3962 604.563 -86.0962 597.188C-61.6163 568.375 -39.2363 540.188 -2.87628 522.563C30.4837 506.5 67.7437 499.563 102.664 504.313C111.304 505.5 119.764 507.437 128.044 510.125C151.024 517.562 172.084 530.25 196.204 536.438C211.564 540.375 226.384 539.812 240.544 536.062C279.424 525.625 310.324 490.812 327.484 454.812C329.824 449.875 331.924 444.875 333.724 439.938C342.724 415.188 347.824 388.75 351.124 361.312C355.144 327.937 356.584 293.187 360.004 259.25C363.244 227.5 368.344 193.313 376.204 159C389.344 101.375 410.404 43.4375 439.204 -1.875C456.424 -28.8125 476.284 -50.4375 498.544 -68.3125C538.624 -100.562 586.384 -120.625 639.424 -138.375C668.164 -148 697.684 -154.875 727.504 -159.25"></path>
<path stroke-miterlimit="10" stroke="#D4E8F7" d="M-423.891 683.75C-350.151 742.937 -243.411 746.688 -170.211 692.688C-144.471 673.688 -124.971 648.938 -103.851 624.875C-71.2706 587.688 -49.1907 546.687 -3.83066 524.062C36.9093 503.75 85.6893 500.062 128.109 517C151.509 526.312 172.869 541.125 196.929 548.313C260.889 567.375 314.109 501 331.209 443.812C348.609 385.562 345.249 321.938 352.329 260.813C362.109 176.125 390.669 71.875 437.829 0.687508C487.389 -74.1875 557.289 -105.625 639.789 -133.188C668.469 -142.75 697.869 -149.688 727.629 -154.438"></path>
</g>
<mask height="500" width="720" y="0" x="0" maskUnits="userSpaceOnUse" style="mask-type:luminance" id="mask2_464_1697">
<path fill="white" d="M708 0H12C5.37258 0 0 5.37258 0 12V488C0 494.627 5.37257 500 12 500H708C714.627 500 720 494.627 720 488V12C720 5.37258 714.627 0 708 0Z"></path>
</mask>
<g mask="url(#mask2_464_1697)">
<path fill="#2B3640" d="M828.07 227.341C830.264 240.735 809.323 248.449 800.879 237.822C794.225 229.448 787.098 221.499 779.391 214.125C754.371 190.187 722.691 172.562 688.851 170C655.011 167.438 619.191 181.562 599.391 210.312C588.471 226.125 582.951 245.125 575.991 263.188C569.031 281.25 559.911 299.438 544.431 310.312C528.951 321.187 505.671 322.125 493.131 307.688C479.451 291.875 483.531 265.625 470.811 248.938C456.531 230.188 429.111 232.375 406.431 236.312C383.751 240.25 356.391 242.625 341.931 224.062C330.351 209.188 333.411 185.625 345.951 171.625C358.491 157.625 378.171 152.438 396.471 154.25C414.771 156.062 431.991 163.938 448.251 172.812C469.011 184.125 493.251 197.563 514.371 187.125C526.071 181.375 533.751 169.25 538.431 156.688C543.111 144.125 545.391 130.75 549.591 118C563.031 77.3125 597.711 45.0625 638.031 35.6875C668.691 28.5625 702.051 33.75 730.551 20.0625C745.201 13.05 757.168 1.69392 767.915 -11.0261C774.765 -19.1343 788.213 -15.9119 789.929 -5.43705L828.07 227.341Z"></path>
</g>
<mask height="500" width="720" y="0" x="0" maskUnits="userSpaceOnUse" style="mask-type:luminance" id="mask3_464_1697">
<path fill="white" d="M708 0H12C5.37258 0 0 5.37258 0 12V488C0 494.627 5.37257 500 12 500H708C714.627 500 720 494.627 720 488V12C720 5.37258 714.627 0 708 0Z"></path>
</mask>
<g mask="url(#mask3_464_1697)">
<path fill="#2B3640" d="M-121.106 549.614C-123.478 556.627 -118.992 564.117 -111.621 564.818C-58.9992 569.828 -4.74071 554.773 38.2872 522.75C76.1472 494.625 106.927 453.375 151.447 439.375C174.547 432.125 199.147 433.063 223.207 434.5C247.267 435.938 271.687 437.875 295.207 432.5C318.727 427.125 341.767 413.125 352.327 390.563C360.727 372.625 360.127 350.375 350.707 332.938C341.287 315.5 323.407 303.375 304.327 301.5C276.007 298.75 250.147 316.813 227.287 334.375C204.427 351.938 179.227 370.625 150.847 369.375C110.947 367.625 81.3672 327.375 42.0072 320.375C8.95964 314.488 -22.9237 333.028 -51.5112 351.738C-53.7454 353.2 -55.4173 355.374 -56.2727 357.903L-121.106 549.614Z"></path>
</g>
<mask height="500" width="720" y="0" x="0" maskUnits="userSpaceOnUse" style="mask-type:luminance" id="mask4_464_1697">
<path fill="white" d="M708 0H12C5.37258 0 0 5.37258 0 12V488C0 494.627 5.37257 500 12 500H708C714.627 500 720 494.627 720 488V12C720 5.37258 714.627 0 708 0Z"></path>
</mask>
<g mask="url(#mask4_464_1697)">
<path stroke-miterlimit="10" stroke="#FF4DC4" d="M-25.4297 472C-20.2697 441.75 9.19032 423.688 37.5103 420.188C65.8303 416.688 94.7503 423.562 123.43 423.562C200.23 423.5 272.65 368.438 297.79 290.938C305.83 266.125 309.37 239.625 317.23 214.688C325.09 189.813 338.41 165.5 360.07 153.688C391.21 136.625 430.21 149.75 461.65 168.812C493.09 187.875 522.49 213.125 557.29 221.875C603.01 233.375 650.59 213.562 685.57 181.75C720.55 149.937 745.27 107.125 769.39 65"></path>
<path stroke-miterlimit="10" stroke="#F552C5" d="M-27.1719 469.062C-21.4719 438.937 7.86813 420.937 36.2481 417.312C48.5481 415.75 60.9081 416.125 73.3281 417.187C89.6481 418.562 105.968 421 122.168 421.375C155.228 422.125 187.508 413.313 215.828 396.188C237.728 382.938 257.168 365.5 272.708 344.562C283.808 329.687 292.688 312.937 298.868 294.75C301.628 286.625 303.908 278.25 306.008 269.812C310.268 252.688 313.748 235.312 319.268 218.75C325.508 199.937 334.988 181.75 349.028 169.375C353.408 165.5 358.148 162.187 363.368 159.562C385.208 148.625 410.468 152.375 434.648 161.688C445.088 165.688 455.348 170.75 464.888 176.125C475.568 182.187 486.008 188.688 496.388 194.938C516.788 207.188 537.008 218.5 558.848 222.562C573.068 225.25 587.048 224.5 600.968 221.312C629.108 214.75 656.828 197.25 679.928 174.875C686.228 168.75 692.288 162.25 698.168 155.563C724.148 125.688 745.868 91.1875 767.288 58.5625"></path>
<path stroke-miterlimit="10" stroke="#EB57C7" d="M-28.8672 466.125C-22.6272 436.188 6.59281 418.187 35.0328 414.437C47.3328 412.812 59.7528 413.188 72.2328 414.313C88.5528 415.813 104.813 418.5 121.073 419.25C154.073 420.813 186.233 413.375 214.853 397C236.993 384.312 256.733 367.687 272.873 347.562C284.393 333.125 293.573 316.625 300.053 298.563C302.933 290.5 305.333 282.125 307.493 273.688C311.933 256.625 315.593 239.188 321.353 222.75C327.893 204.063 337.673 186.312 352.193 174.562C356.693 170.937 361.493 167.813 366.713 165.438C388.673 155.5 413.573 160.188 437.693 169.5C448.193 173.563 458.513 178.375 468.113 183.438C478.913 189.062 489.473 195.062 499.793 200.5C520.133 211.312 539.753 220.875 560.333 223.25C573.653 224.813 586.433 223 599.213 218.875C625.133 210.438 651.473 191.312 674.153 168C680.393 161.562 686.393 154.875 692.273 148C718.493 117.25 741.833 83 764.933 52.1875"></path>
<path stroke-miterlimit="10" stroke="#E15DC8" d="M-30.6016 463.125C-23.8216 433.375 5.21841 415.313 33.7184 411.5C46.0184 409.875 58.4984 410.187 70.9784 411.375C87.2984 412.937 103.558 415.875 119.758 417C152.698 419.312 184.798 413.375 213.718 397.688C236.038 385.563 256.198 369.813 272.878 350.438C284.878 336.5 294.358 320.25 301.078 302.313C304.078 294.313 306.538 286 308.878 277.562C313.498 260.5 317.398 243.062 323.338 226.75C330.118 208.187 340.258 190.875 355.198 179.687C359.818 176.25 364.618 173.375 369.898 171.25C391.918 162.312 416.518 167.937 440.638 177.25C451.138 181.312 461.518 186 471.298 190.687C482.218 195.937 492.838 201.25 503.158 206.063C523.438 215.438 542.578 223.25 561.838 223.875C574.318 224.313 585.778 221.437 597.418 216.437C621.118 206.25 646.078 185.438 668.338 161.063C674.458 154.375 680.458 147.375 686.398 140.312C712.858 108.625 737.878 74.6875 762.598 45.6875"></path>
<path stroke-miterlimit="10" stroke="#D762CA" d="M-32.3359 460.188C-25.0159 430.563 3.90406 412.563 32.4641 408.625C44.8241 406.938 57.3041 407.25 69.7841 408.562C86.1041 410.25 102.364 413.375 118.504 414.938C151.384 418 183.424 413.5 212.584 398.562C235.144 387 255.664 372.125 272.884 353.5C285.364 340.062 295.144 324.062 302.104 306.25C305.224 298.25 307.804 290 310.204 281.562C315.004 264.562 319.084 247.063 325.324 230.875C332.404 212.5 342.784 195.5 358.264 185C362.944 181.812 367.864 179.125 373.084 177.25C395.224 169.312 419.464 175.875 443.524 185.25C454.024 189.375 464.524 193.812 474.364 198.187C485.344 203.062 496.144 207.813 506.404 211.813C526.624 219.688 545.284 225.812 563.224 224.75C574.864 224.062 585.004 220.125 595.564 214.188C617.044 202.125 640.564 179.75 662.524 154.375C668.524 147.375 674.524 140.188 680.524 132.938C707.224 100.375 733.864 66.75 760.264 39.5"></path>
<path stroke-miterlimit="10" stroke="#CD67CB" d="M-34.0156 457.25C-26.2156 427.813 2.64437 409.812 31.2644 405.75C43.6244 404 56.1644 404.312 68.6444 405.688C84.9644 407.437 101.224 410.875 117.304 412.75C150.124 416.625 182.104 413.5 211.564 399.313C234.364 388.313 255.184 374.25 273.004 356.437C285.964 343.437 295.984 327.75 303.244 310C306.484 302.062 309.184 293.812 311.644 285.375C316.684 268.375 320.944 250.875 327.364 234.813C334.684 216.563 345.424 200 361.384 190.062C366.184 187.062 371.104 184.625 376.384 183C398.584 176.062 422.524 183.5 446.584 192.938C457.144 197.063 467.704 201.375 477.664 205.375C488.764 209.875 499.624 214 509.884 217.313C530.044 223.75 548.224 228.125 564.844 225.312C575.704 223.5 584.464 218.5 593.944 211.625C613.204 197.75 635.344 173.688 656.884 147.313C662.824 140 668.764 132.563 674.764 125.125C701.704 91.625 729.964 58.3125 758.104 32.875"></path>
<path stroke-miterlimit="10" stroke="#C36CCD" d="M-35.7578 454.25C-27.4178 425 1.32221 406.937 30.0022 402.875C42.3622 401.125 54.9622 401.375 67.4422 402.812C83.8222 404.688 100.022 408.313 116.102 410.563C148.862 415.188 180.782 413.562 210.482 400.062C233.522 389.625 254.702 376.437 273.062 359.375C286.502 346.875 296.822 331.437 304.322 313.812C307.622 305.937 310.442 297.75 313.082 289.313C318.302 272.313 322.742 254.813 329.402 238.875C336.962 220.75 348.002 204.563 364.502 195.312C369.422 192.562 374.402 190.312 379.682 188.937C402.002 183 425.582 191.375 449.642 200.812C460.202 204.937 470.882 209.063 480.902 212.75C492.122 216.875 503.042 220.375 513.362 222.938C533.402 227.938 551.282 230.563 566.462 226.063C576.542 223.063 583.982 217 592.322 209.313C609.362 193.625 630.122 167.938 651.302 140.563C657.122 133 663.062 125.312 669.122 117.687C696.302 83.3125 726.242 50.25 756.002 26.5625"></path>
<path stroke-miterlimit="10" stroke="#B972CE" d="M-37.4375 451.312C-28.5575 422.25 0.0624946 404.188 28.7425 400C41.1625 398.188 53.7625 398.438 66.3025 399.938C82.6825 401.875 98.8225 405.75 114.903 408.438C147.603 413.875 179.463 413.625 209.403 400.875C232.683 391 254.223 378.687 273.063 362.375C286.983 350.375 297.603 335.187 305.343 317.687C308.763 309.875 311.703 301.688 314.403 293.25C319.803 276.313 324.422 258.75 331.323 242.938C339.183 224.938 350.463 209.187 367.503 200.5C372.483 197.937 377.523 195.937 382.863 194.75C405.243 189.812 428.523 199.125 452.523 208.563C463.143 212.75 473.883 216.687 483.963 220C495.303 223.75 506.343 226.625 516.603 228.5C536.583 232.062 554.042 232.812 567.782 226.75C577.142 222.625 583.143 215.5 590.403 206.875C605.223 189.312 624.543 162.062 645.363 133.625C651.123 125.75 657.003 117.812 663.123 110C690.543 74.6875 722.103 42 753.543 20.0625"></path>
<path stroke-miterlimit="10" stroke="#AF77CF" d="M-39.1797 448.375C-29.7597 419.438 -1.25967 401.438 27.4803 397.125C39.9003 395.25 52.5603 395.5 65.1003 397.063C81.4803 399.125 97.6203 403.187 113.64 406.25C146.28 412.437 178.08 413.625 208.32 401.625C231.84 392.312 253.74 380.875 273.12 365.312C287.52 353.75 298.38 338.875 306.42 321.437C309.96 313.687 312.96 305.5 315.78 297.062C321.36 280.125 326.22 262.562 333.3 246.875C341.4 229 353.04 213.625 370.5 205.625C375.6 203.312 380.7 201.5 386.04 200.563C408.54 196.625 431.4 206.875 455.46 216.312C466.08 220.5 476.88 224.25 487.14 227.25C498.6 230.625 509.7 232.938 519.96 234C539.88 236.125 556.98 235 569.28 227.312C577.92 221.937 582.48 213.812 588.66 204.375C601.26 184.937 619.2 156.125 639.66 126.688C645.3 118.562 651.18 110.375 657.3 102.312C684.96 66.125 718.14 33.6875 751.26 13.5625"></path>
<path stroke-miterlimit="10" stroke="#A57CD1" d="M-40.8672 445.375C-30.9072 416.625 -2.52718 398.562 26.2728 394.187C38.6928 392.312 51.3528 392.5 63.9528 394.125C80.3328 396.25 96.4728 400.625 112.433 404.062C145.013 411.062 176.693 413.688 207.233 402.375C230.993 393.625 253.253 383.063 273.173 368.25C288.053 357.187 299.213 342.563 307.493 325.25C311.153 317.563 314.273 309.437 317.213 301C323.033 284.125 328.013 266.5 335.393 250.937C343.793 233.187 355.673 218.188 373.673 210.875C378.833 208.75 383.993 207.25 389.393 206.5C411.953 203.563 434.513 214.75 458.573 224.188C469.253 228.375 480.113 232 490.433 234.625C502.013 237.563 513.173 239.312 523.433 239.687C543.233 240.375 560.033 237.25 570.893 228.125C578.813 221.5 581.933 212.437 587.033 202.062C597.413 180.812 613.973 150.313 634.013 119.938C639.533 111.5 645.413 103.062 651.593 94.875C679.493 57.8125 714.293 25.625 749.093 7.3125"></path>
<path stroke-miterlimit="10" stroke="#9B81D2" d="M-42.6016 442.438C-32.1616 413.875 -3.8416 395.812 25.0184 391.312C37.4384 389.375 50.1584 389.562 62.7584 391.312C79.1384 393.562 95.2784 398.125 111.238 401.937C143.758 409.687 175.378 413.75 206.218 403.187C230.218 395 252.898 385.312 273.298 371.25C288.658 360.687 300.118 346.312 308.638 329.125C312.418 321.5 315.658 313.375 318.658 304.938C324.658 288.063 329.878 270.437 337.438 255C346.078 237.437 358.258 222.75 376.798 216.062C382.078 214.188 387.298 212.875 392.698 212.375C415.378 210.437 437.578 222.5 461.578 232C472.258 236.25 483.238 239.625 493.618 241.937C505.258 244.5 516.598 245.625 526.798 245.25C546.538 244.5 562.978 239.312 572.398 228.75C579.538 220.75 581.338 210.812 585.298 199.562C593.458 176.437 608.638 144.375 628.258 112.938C633.718 104.188 639.538 95.5625 645.778 87.125C673.918 49.125 710.398 17.3125 746.878 0.75"></path>
<path stroke-miterlimit="10" stroke="#9187D4" d="M-44.3438 439.5C-33.3638 411.062 -5.16373 393.063 23.6963 388.438C36.1763 386.438 48.8963 386.625 61.5563 388.438C77.9363 390.75 94.0162 395.563 109.976 399.75C142.436 408.312 173.996 413.75 205.076 403.938C229.316 396.313 252.356 387.5 273.296 374.187C289.136 364.125 300.896 350 309.656 332.875C313.556 325.312 316.856 317.187 319.976 308.75C326.156 291.875 331.556 274.312 339.356 258.937C348.236 241.5 360.716 227.188 379.796 221.188C385.136 219.5 390.476 218.437 395.816 218.187C418.556 217.25 440.456 230.25 464.456 239.75C475.196 244 486.236 247.25 496.736 249.188C508.496 251.375 519.896 251.937 530.096 250.812C549.716 248.625 565.736 241.312 573.836 229.437C580.196 220.125 580.616 209.312 583.496 197.187C589.436 172.187 603.176 138.562 622.496 106.125C627.836 97.125 633.656 88.1875 639.896 79.625C668.276 40.75 706.376 9.1875 744.536 -5.5625"></path>
<path stroke-miterlimit="10" stroke="#878CD5" d="M-46.0234 436.5C-34.5034 408.25 -6.42343 390.188 22.4966 385.5C34.9766 383.5 47.7565 383.625 60.4165 385.5C76.8565 387.938 92.8765 393 108.777 397.562C141.177 406.875 172.677 413.75 204.057 404.687C228.537 397.625 251.937 389.688 273.417 377.125C289.737 367.563 301.737 353.688 310.797 336.688C314.757 329.188 318.237 321.125 321.417 312.687C327.777 295.875 333.357 278.25 341.397 263.063C350.577 245.75 363.297 231.75 382.917 226.437C388.377 224.937 393.717 224.125 399.117 224.125C421.977 224.187 443.517 238.125 467.517 247.687C478.257 251.937 489.357 255 499.977 256.625C511.857 258.437 523.317 258.375 533.517 256.5C553.077 252.938 568.557 243.437 575.337 230.187C580.857 219.5 579.957 207.812 581.697 194.812C585.357 167.938 597.777 132.687 616.677 99.25C621.897 89.9375 627.657 80.8125 634.017 72C662.637 32.1875 702.357 0.9375 742.197 -12.0625"></path>
<path stroke-miterlimit="10" stroke="#7D91D7" d="M-47.7578 433.562C-35.6978 405.5 -7.73781 387.437 21.2422 382.687C33.7222 380.625 46.5622 380.75 59.2222 382.687C75.6622 385.187 91.6822 390.5 107.522 395.437C139.862 405.5 171.302 413.875 202.922 405.5C227.582 399 251.402 391.937 273.422 380.125C290.282 371.062 302.522 357.438 311.822 340.563C315.902 333.125 319.502 325.062 322.802 316.625C329.402 299.812 335.162 282.188 343.442 267.125C352.862 249.938 365.882 236.313 385.982 231.688C391.502 230.438 396.962 229.812 402.362 230.062C425.282 231.125 446.522 246 470.462 255.563C481.202 259.875 492.422 262.688 503.102 264C515.102 265.438 526.622 264.812 536.822 262.187C556.262 257.187 571.202 245.562 576.782 231C581.402 218.937 579.242 206.437 579.902 192.5C581.342 163.812 592.382 126.937 610.922 92.5C616.082 82.875 621.782 73.5 628.142 64.5625C657.002 23.875 698.342 -7.0625 739.862 -18.3125"></path>
<path stroke-miterlimit="10" stroke="#7396D8" d="M-49.4453 430.625C-36.8453 402.688 -9.00532 384.688 20.0347 379.813C32.5747 377.688 45.4147 377.813 58.0747 379.813C74.5147 382.438 90.5347 387.938 106.375 393.313C138.655 404.188 170.035 413.937 201.955 406.312C226.855 400.375 251.095 394.25 273.595 383.125C290.935 374.563 303.475 361.188 313.015 344.375C317.215 336.938 320.875 328.938 324.295 320.5C331.075 303.75 337.015 286.062 345.535 271.125C355.255 254.063 368.515 240.75 389.155 236.813C394.795 235.75 400.255 235.375 405.715 235.875C428.755 237.875 449.635 253.75 473.575 263.312C484.375 267.625 495.655 270.313 506.455 271.25C518.575 272.313 530.215 271.063 540.355 267.688C559.735 261.25 574.075 247.562 578.455 231.625C582.115 218.187 578.755 204.812 578.335 190.062C577.495 159.5 587.215 121.063 605.335 85.5625C610.375 75.6875 616.075 66.0625 622.495 56.875C651.595 15.25 694.615 -15.375 737.815 -24.8125"></path>
<path stroke-miterlimit="10" stroke="#699CD9" d="M-51.1797 427.625C-38.0997 399.875 -10.3197 381.812 18.7203 376.875C31.2603 374.75 44.1603 374.812 56.8803 376.937C73.3203 379.625 89.3403 385.438 105.12 391.125C137.34 402.75 168.6 413.938 200.82 407.063C225.96 401.688 250.56 396.437 273.6 386.062C291.42 378 304.2 364.875 314.04 348.187C318.36 340.812 322.14 332.875 325.62 324.437C332.58 307.687 338.76 290 347.46 275.187C357.42 258.25 370.92 245.312 392.16 242.062C397.92 241.187 403.44 241.063 408.9 241.813C432 244.813 452.58 261.563 476.46 271.188C487.26 275.563 498.66 278 509.52 278.625C521.7 279.25 533.46 277.5 543.6 273.375C562.92 265.563 576.6 249.812 579.84 232.375C582.54 217.625 577.98 203.375 576.48 187.687C573.42 155.25 581.7 115.25 599.52 78.75C604.44 68.5625 610.14 58.6875 616.62 49.375C645.96 6.87499 690.6 -23.5 735.48 -31.125"></path>
<path stroke-miterlimit="10" stroke="#5FA1DB" d="M-52.8594 424.688C-39.2394 397.125 -11.5794 379.063 17.5206 374C30.0606 371.813 43.0206 371.875 55.7406 374.062C72.1806 376.875 88.1406 382.875 103.921 388.938C136.081 401.375 167.281 414 199.741 407.812C225.121 403 250.141 398.625 273.661 389C291.961 381.5 305.041 368.563 315.121 352C319.561 344.688 323.401 336.75 327.061 328.312C334.201 311.625 340.561 293.875 349.501 279.188C359.701 262.438 373.501 249.75 395.281 247.25C401.101 246.562 406.681 246.687 412.201 247.687C435.421 251.687 455.641 269.375 479.521 279C490.381 283.375 501.841 285.687 512.821 285.938C525.121 286.188 536.941 283.812 547.081 278.937C566.281 269.687 579.361 251.875 581.461 233.063C583.201 217 577.381 201.875 574.861 185.312C569.461 151.063 576.481 109.375 593.881 71.9375C598.741 61.5 604.381 51.375 610.861 41.8125C640.441 -1.625 686.701 -31.6875 733.261 -37.5"></path>
<path stroke-miterlimit="10" stroke="#55A6DC" d="M-54.6016 421.75C-40.4416 394.375 -12.9016 376.312 16.2584 371.125C28.8584 368.875 41.8184 368.938 54.5384 371.188C71.0384 374.125 86.9384 380.313 102.718 386.813C134.818 400 165.958 414.063 198.718 408.625C224.338 404.375 249.718 400.937 273.778 392C292.618 385 305.938 372.313 316.258 355.875C320.818 348.625 324.778 340.687 328.498 332.25C335.818 315.562 342.359 297.813 351.539 283.25C362.039 266.625 376.139 254.25 398.339 252.438C404.279 251.938 409.919 252.312 415.439 253.5C438.719 258.5 458.638 277.125 482.518 286.75C493.378 291.125 504.899 293.25 515.999 293.187C528.419 293.062 540.359 290.125 550.439 284.5C569.579 273.813 581.999 254.063 582.899 233.688C583.679 216.375 576.659 200.25 573.059 182.812C565.439 146.75 571.079 103.438 588.059 64.9375C592.799 54.1875 598.438 43.8125 604.978 34.125C634.798 -10.1875 682.679 -39.9375 730.919 -44.0625"></path>
<path stroke-miterlimit="10" stroke="#4BABDE" d="M-56.3359 418.75C-41.6359 391.5 -14.2759 373.437 15.0041 368.188C27.6041 365.938 40.564 365.937 53.344 368.25C69.844 371.25 85.7441 377.75 101.464 384.563C133.504 398.563 164.584 414 197.584 409.313C223.444 405.625 249.184 403.125 273.784 394.875C293.104 388.375 306.664 375.937 317.284 359.562C321.964 352.375 326.044 344.5 329.824 336.062C337.384 319.375 344.104 301.625 353.524 287.188C364.264 270.688 378.664 258.625 401.404 257.562C407.404 257.312 413.104 257.938 418.684 259.313C442.084 265.313 461.584 284.875 485.464 294.5C496.384 298.937 507.964 300.875 519.124 300.437C531.664 299.937 543.664 296.375 553.744 290C572.824 277.938 584.584 256.125 584.344 234.313C584.164 215.75 576.004 198.687 571.264 180.312C561.424 142.375 565.624 97.5 582.304 58C586.924 46.9375 592.564 36.375 599.164 26.4375C629.224 -18.8125 678.784 -48.25 728.644 -50.5625"></path>
<path stroke-miterlimit="10" stroke="#41B1DF" d="M-58.0156 415.813C-42.8356 388.75 -15.5356 370.688 13.7444 365.312C26.3444 363 39.3644 363 52.2044 365.375C68.7044 368.5 84.6044 375.188 100.264 382.438C132.244 397.188 163.264 414.125 196.564 410.125C222.664 407 248.824 405.375 273.844 397.875C293.644 391.937 307.504 379.688 318.424 363.438C323.164 356.313 327.364 348.438 331.324 340C339.064 323.375 345.964 305.562 355.624 291.25C366.664 274.875 381.304 263.125 404.584 262.75C410.704 262.688 416.464 263.562 421.984 265.187C445.444 272.187 464.644 292.687 488.524 302.375C499.444 306.812 511.144 308.563 522.424 307.812C535.084 306.938 547.204 302.812 557.224 295.687C576.244 282.25 587.344 258.437 585.964 235.062C584.764 215.25 575.464 197.25 569.644 178C557.584 138.187 560.404 91.75 576.664 51.1875C581.224 39.875 586.804 29 593.404 18.9375C623.704 -27.1875 674.884 -56.375 726.484 -56.875"></path>
<path stroke-miterlimit="10" stroke="#37B6E1" d="M-59.7578 412.875C-44.0378 386 -16.8578 367.938 12.4822 362.5C25.1422 360.125 38.1622 360.125 51.0022 362.563C67.5022 365.75 83.4022 372.688 99.0022 380.313C130.922 395.875 161.882 414.188 195.422 410.938C221.762 408.375 248.282 407.75 273.842 400.875C294.122 395.5 308.282 383.438 319.442 367.313C324.302 360.25 328.622 352.375 332.642 343.938C340.562 327.313 347.702 309.5 357.542 295.313C368.822 279.063 383.762 267.563 407.582 268C413.762 268.125 419.582 269.25 425.162 271.125C448.742 279.125 467.582 300.5 491.462 310.25C502.442 314.688 514.202 316.313 525.542 315.188C538.262 313.938 550.502 309.188 560.522 301.313C579.482 286.438 589.922 260.688 587.402 235.813C585.242 214.75 574.742 195.75 567.842 175.625C553.502 134 555.002 85.875 570.902 44.375C575.342 32.75 580.922 21.6875 587.582 11.375C618.122 -35.6875 670.922 -64.5 724.202 -63.25"></path>
<path stroke-miterlimit="10" stroke="#2DBBE2" d="M-61.4375 409.875C-38.1575 371.625 7.2625 351.125 49.8625 359.625C100.083 369.625 143.943 415.438 194.403 411.625C220.983 409.625 247.863 409.875 273.963 403.75C303.843 396.75 320.522 375.438 334.082 347.75C351.482 312.188 365.103 270.938 410.703 273.125C443.643 274.688 465.003 305.938 494.463 318C517.743 327.5 545.043 323.125 563.943 306.813C582.843 290.5 592.623 262.875 588.963 236.438C585.843 214.125 574.143 194.188 566.163 173.125C544.983 117.5 551.043 51.6252 581.823 3.6877C612.603 -44.2498 667.082 -72.8123 721.983 -69.7498"></path>
<path stroke-miterlimit="10" stroke="#33B4E3" d="M-58.7969 415.375C-35.1569 380.125 9.96311 361.062 52.2631 368.875C73.4431 372.75 93.5431 382.625 113.403 392.125C133.743 401.937 153.723 411.437 174.603 414.25C181.323 415.125 188.163 415.375 195.063 414.625C221.043 411.812 247.323 411.125 273.303 404.75C302.763 397.562 319.743 377.125 333.783 351C337.023 345 340.143 338.875 343.323 332.812C352.683 315 362.643 298.125 378.363 288.812C387.183 283.562 397.743 280.625 410.943 281.125C443.463 282.25 464.763 310.875 493.263 321.187C497.043 322.562 500.943 323.562 504.843 324.187C524.343 327.312 544.923 321.437 559.983 307.625C578.043 291.062 587.403 263.687 583.983 237.5C581.103 215.312 570.183 195.25 562.803 174.187C550.083 137.875 548.643 97.375 557.823 60.625C562.743 41 570.723 22.4375 581.523 6.06248C601.323 -23.8125 630.423 -45.9375 663.123 -57.625C681.903 -64.3125 701.883 -67.5 721.923 -66.625"></path>
<path stroke-miterlimit="10" stroke="#38ADE5" d="M-56.0938 420.875C-32.1537 388.625 12.7262 371 54.7862 378.125C75.9062 381.688 95.8863 390.625 115.506 399.125C135.606 407.813 155.226 416.126 175.746 418.001C182.346 418.626 189.006 418.563 195.786 417.625C221.226 414 246.846 412.438 272.646 405.813C301.626 398.501 318.966 378.813 333.426 354.25C336.786 348.563 340.026 342.875 343.326 337.188C352.986 320.563 363.066 305 378.786 296.375C387.666 291.563 398.166 288.75 411.126 289.063C443.226 289.813 464.466 315.75 492.006 324.313C495.666 325.438 499.386 326.188 503.166 326.625C521.946 328.75 541.626 322.313 555.966 308.313C573.186 291.5 582.126 264.438 579.006 238.5C576.426 216.438 566.166 196.313 559.506 175.188C547.866 138.875 547.206 98.563 556.866 62.2505C562.086 42.7505 570.306 24.438 581.346 8.31297C601.446 -21.062 630.606 -42.687 663.366 -54.3745C682.146 -61.062 702.006 -64.312 721.986 -63.562"></path>
<path stroke-miterlimit="10" stroke="#3EA6E6" d="M-53.4062 426.375C-29.1063 397.125 15.4737 380.875 57.2337 387.312C78.2337 390.5 98.1537 398.625 117.594 406C137.514 413.625 156.774 420.625 176.874 421.625C183.354 421.937 189.894 421.625 196.494 420.5C221.394 416.063 246.354 413.5 272.034 406.687C300.594 399.125 318.234 380.375 333.174 357.375C336.594 352.062 340.014 346.75 343.374 341.5C353.334 326.125 363.534 311.75 379.254 303.875C388.134 299.438 398.634 296.75 411.354 296.937C443.034 297.25 464.154 320.625 490.854 327.375C494.394 328.25 497.994 328.812 501.654 329.062C519.714 330.187 538.494 323.188 552.174 309C568.614 292 577.074 265.188 574.254 239.5C571.914 217.5 562.434 197.313 556.374 176.188C545.874 139.875 545.874 99.75 556.074 63.875C561.594 44.5 570.054 26.4375 581.274 10.625C601.674 -18.25 630.894 -39.375 663.654 -51.0625C682.374 -57.6875 702.234 -61 722.154 -60.5"></path>
<path stroke-miterlimit="10" stroke="#43A0E8" d="M-50.7031 431.875C-26.0431 405.563 18.2369 390.813 59.7569 396.563C80.6969 399.375 100.497 406.625 119.757 413C139.497 419.5 158.337 425.25 178.077 425.375C184.437 425.438 190.797 424.875 197.277 423.5C221.637 418.313 245.937 414.813 271.497 407.75C299.577 400 317.577 382.125 332.937 360.625C336.477 355.688 340.017 350.75 343.497 345.875C353.757 331.688 364.077 318.563 379.797 311.438C388.737 307.375 399.177 305 411.657 304.938C442.917 304.813 463.917 325.563 489.717 330.563C493.137 331.25 496.617 331.563 500.097 331.563C517.437 331.688 535.257 324.125 548.277 309.75C563.877 292.5 571.857 266 569.397 240.5C567.297 218.625 558.597 198.313 553.197 177.188C543.777 140.813 544.557 100.938 555.297 65.4379C561.117 46.1879 569.877 28.4378 581.217 12.8128C601.917 -15.5622 631.197 -36.2496 664.017 -47.8121C682.737 -54.4371 702.477 -57.8121 722.337 -57.4371"></path>
<path stroke-miterlimit="10" stroke="#4999E9" d="M-48.0625 437.313C-23.0425 414 20.9375 400.688 62.1575 405.688C82.9775 408.188 102.778 414.563 121.798 419.813C141.298 425.25 159.778 429.75 179.158 428.938C185.398 428.688 191.638 427.875 197.938 426.313C221.758 420.313 245.398 415.875 270.778 408.563C298.438 400.625 316.738 383.563 332.578 363.688C336.238 359.063 339.898 354.563 343.498 350.125C353.998 337.125 364.558 325.313 380.278 318.875C389.278 315.188 399.598 312.875 411.898 312.75C442.738 312.375 463.678 330.313 488.518 333.563C491.818 334 495.178 334.063 498.478 333.938C515.038 333.125 532.018 324.938 544.318 310.375C559.138 292.875 566.638 266.625 564.478 241.438C562.618 219.688 554.698 199.313 549.898 178.125C541.618 141.75 543.118 102.063 554.338 67.0004C560.458 47.8754 569.458 30.3754 580.978 15.0629C601.978 -12.8121 631.318 -32.9996 664.198 -44.5621C682.858 -51.1246 702.538 -54.5621 722.338 -54.4371"></path>
<path stroke-miterlimit="10" stroke="#4F92EA" d="M-45.3594 442.812C-19.9794 422.5 23.7006 410.563 64.6206 414.938C85.3206 417.063 105.061 422.563 123.901 426.813C143.221 431.125 161.281 434.375 180.301 432.688C186.421 432.125 192.481 431.125 198.661 429.313C221.941 422.5 244.921 417.125 270.181 409.625C297.361 401.5 316.021 385.312 332.281 366.937C336.061 362.687 339.841 358.562 343.501 354.5C354.301 342.688 364.981 332.125 380.701 326.437C389.701 323.125 400.021 321 412.081 320.687C442.561 319.875 463.381 335.187 487.261 336.688C490.441 336.875 493.621 336.75 496.861 336.375C512.701 334.562 528.781 325.813 540.421 311.062C554.401 293.313 561.481 267.375 559.621 242.438C558.001 220.813 550.801 200.312 546.721 179.125C539.521 142.75 541.861 103.25 553.501 68.625C559.921 49.625 569.161 32.375 580.861 17.3125C602.101 -10.0625 631.501 -29.75 664.441 -41.3125C683.101 -47.875 702.721 -51.375 722.461 -51.4375"></path>
<path stroke-miterlimit="10" stroke="#548BEC" d="M-42.6562 448.313C-16.9763 431 26.5237 420.5 67.1437 424.187C87.7837 425.937 107.404 430.625 126.064 433.75C145.204 437 162.904 438.937 181.504 436.375C187.504 435.562 193.444 434.25 199.444 432.25C222.184 424.687 244.564 418.313 269.584 410.563C296.344 402.313 315.304 386.875 332.044 370.125C335.944 366.187 339.844 362.5 343.624 358.875C354.724 348.313 365.584 339 381.244 334C390.304 331.125 400.564 329.125 412.384 328.625C442.444 327.437 463.144 340.125 486.124 339.812C489.184 339.75 492.244 339.437 495.304 338.875C510.424 336.062 525.544 326.75 536.524 311.813C549.664 293.813 556.324 268.187 554.764 243.437C553.384 221.875 547.024 201.312 543.484 180.062C537.484 143.687 540.484 104.375 552.664 70.1875C559.384 51.3125 568.864 34.375 580.744 19.5625C602.284 -7.31252 631.744 -26.5 664.744 -38C683.344 -44.5 702.904 -48.0625 722.584 -48.3125"></path>
<path stroke-miterlimit="10" stroke="#5A84ED" d="M-39.9609 453.812C-13.9209 439.5 29.2791 430.5 69.5991 433.375C90.1191 434.875 109.679 438.562 128.159 440.687C147.059 442.812 164.399 443.5 182.639 440.062C188.519 438.937 194.279 437.375 200.159 435.188C222.299 426.813 244.079 419.562 268.979 411.562C295.319 403.125 314.639 388.562 331.799 373.312C335.819 369.75 339.839 366.437 343.739 363.187C355.079 353.812 366.119 345.813 381.779 341.5C390.899 339 401.099 337.187 412.679 336.562C442.319 335 462.959 345 484.979 342.938C487.919 342.687 490.859 342.125 493.739 341.375C508.139 337.563 522.359 327.687 532.619 312.562C544.979 294.312 551.159 268.937 549.839 244.5C548.699 223.063 543.119 202.437 540.239 181.125C535.319 144.75 539.099 105.625 551.759 71.875C558.779 53.125 568.559 36.4375 580.559 21.9375C602.399 -4.4375 631.919 -23.125 664.919 -34.625C683.459 -41.125 703.019 -44.6875 722.579 -45.1875"></path>
<path stroke-miterlimit="10" stroke="#607DEE" d="M-37.3203 459.313C-10.9203 448 31.9797 440.437 72.0597 442.625C92.5197 443.75 111.96 446.625 130.26 447.625C148.98 448.687 165.9 448.125 183.78 443.75C189.48 442.375 195.18 440.563 200.88 438.125C222.48 428.938 243.6 420.75 268.32 412.562C294.18 403.937 313.86 390.25 331.44 376.562C335.58 373.375 339.72 370.437 343.74 367.562C355.38 359.375 366.6 352.625 382.2 349.062C391.38 346.937 401.46 345.25 412.86 344.5C442.08 342.5 462.66 349.875 483.72 346.063C486.54 345.563 489.36 344.75 492.06 343.812C505.74 339 519.06 328.563 528.6 313.25C540.12 294.813 545.88 269.688 544.86 245.438C544.02 224.125 539.1 203.375 536.94 182.062C533.16 145.687 537.66 106.75 550.86 73.4375C558.18 54.8125 568.2 38.375 580.38 24.125C602.52 -1.75 632.1 -19.9375 665.16 -31.4375C683.7 -37.875 703.14 -41.5625 722.7 -42.1875"></path>
<path stroke-miterlimit="10" stroke="#6576F0" d="M-34.625 464.812C-7.865 456.437 34.735 450.375 74.515 451.875C94.855 452.625 114.235 454.625 132.355 454.625C150.895 454.625 167.395 452.75 184.915 447.5C190.495 445.813 196.015 443.75 201.595 441.125C222.655 431.125 243.115 422.062 267.715 413.562C293.155 404.812 313.195 391.875 331.195 379.812C335.455 376.937 339.715 374.437 343.795 372C355.675 365 367.135 359.562 382.675 356.687C391.915 355 401.935 353.438 413.095 352.5C441.895 350.125 462.415 354.75 482.515 349.25C485.215 348.5 487.855 347.5 490.495 346.375C503.455 340.625 515.815 329.563 524.755 314.063C535.495 295.375 540.775 270.562 540.055 246.562C539.455 225.375 535.315 204.562 533.755 183.187C531.055 146.812 536.395 108.062 550.015 75.1875C557.695 56.75 567.895 40.5 580.315 26.5625C602.755 1.1875 632.395 -16.5 665.515 -28C683.995 -34.4375 703.375 -38.125 722.875 -39"></path>
<path stroke-miterlimit="10" stroke="#6B70F1" d="M-31.9141 470.25C-4.79406 464.875 37.5059 460.187 77.0459 461C97.3259 461.437 116.586 462.563 134.466 461.438C152.766 460.313 168.906 457.187 186.066 451.062C191.526 449.062 196.926 446.75 202.326 443.938C222.846 433.125 242.646 423.125 267.126 414.437C292.146 405.5 312.546 393.437 330.906 382.875C335.286 380.375 339.606 378.188 343.866 376.188C356.046 370.375 367.626 366.25 383.166 364.062C392.466 362.75 402.426 361.375 413.406 360.312C441.786 357.5 462.186 359.5 481.386 352.25C483.966 351.25 486.486 350.063 488.946 348.688C501.186 341.937 512.646 330.313 520.866 314.625C530.766 295.688 535.626 271.125 535.206 247.438C534.846 226.313 531.486 205.438 530.586 184.063C529.026 147.625 535.086 109.125 549.186 76.6875C557.166 58.375 567.666 42.4375 580.206 28.6875C602.946 3.8125 632.646 -13.375 665.766 -24.8125C684.246 -31.1875 703.566 -35 722.946 -36"></path>
<path stroke-miterlimit="10" stroke="#7069F3" d="M-29.2109 475.75C-1.79094 473.375 40.2691 470.125 79.5091 470.25C99.6691 470.313 118.869 470.625 136.569 468.375C154.689 466.188 170.469 461.812 187.209 454.75C192.549 452.5 197.829 449.937 203.049 446.875C223.029 435.25 242.169 424.375 266.469 415.375C291.009 406.312 311.769 395.062 330.609 386.062C335.109 383.937 339.549 382.125 343.929 380.562C356.349 375.937 368.169 373.125 383.649 371.688C392.949 370.813 402.909 369.563 413.649 368.313C441.609 365.125 461.949 364.438 480.189 355.438C482.649 354.188 485.049 352.812 487.329 351.25C498.849 343.5 509.349 331.313 516.909 315.438C525.969 296.25 530.409 272 530.289 248.5C530.169 227.5 527.589 206.563 527.289 185.125C526.809 148.688 533.709 110.375 548.289 78.375C556.569 60.1875 567.309 44.5 580.029 31.0625C603.069 6.62501 632.829 -9.99999 666.009 -21.4375C684.429 -27.8125 703.689 -31.625 723.069 -32.875"></path>
<path stroke-miterlimit="10" stroke="#7662F4" d="M-26.5859 481.25C1.19406 481.875 42.9541 480 81.8941 479.5C101.934 479.187 121.074 478.625 138.594 475.375C156.534 472.062 171.894 466.437 188.274 458.5C193.494 455.938 198.594 453.125 203.634 449.875C223.074 437.438 241.554 425.625 265.734 416.438C289.854 407.25 310.974 396.813 330.174 389.313C334.794 387.5 339.354 386.125 343.794 384.938C356.454 381.5 368.514 380 383.934 379.25C393.294 378.75 403.194 377.625 413.694 376.25C441.234 372.625 461.514 369.312 478.794 358.5C481.134 357.063 483.414 355.375 485.574 353.625C496.374 344.875 505.974 332.125 512.874 316.062C521.154 296.625 525.114 272.687 525.294 249.437C525.474 228.562 523.554 207.5 523.974 186.063C524.634 149.625 532.254 111.5 547.314 79.9375C555.894 61.875 566.874 46.4375 579.774 33.25C603.114 9.3125 632.934 -6.81251 666.174 -18.25C684.594 -24.5625 703.734 -28.5 723.054 -29.9375"></path>
<path stroke-miterlimit="10" stroke="#7C5BF5" d="M-23.875 486.75C4.265 490.375 45.785 489.938 84.425 488.688C104.405 488.063 123.425 486.625 140.765 482.25C158.465 477.875 173.465 471 189.485 462.125C194.585 459.313 199.565 456.188 204.425 452.75C223.265 439.5 241.145 426.812 265.145 417.312C288.845 407.937 310.325 398.375 329.945 392.438C334.685 391 339.365 390 343.925 389.187C356.885 386.937 369.065 386.312 384.485 386.687C393.905 386.875 403.685 385.625 414.005 384.062C441.125 380.062 461.285 374 477.665 361.5C479.885 359.813 481.985 357.937 484.025 356C494.105 346.25 502.805 332.938 508.985 316.688C516.425 297 519.965 273.312 520.445 250.375C520.865 229.625 519.725 208.438 520.745 187C522.485 150.563 530.945 112.625 546.425 81.4375C555.365 63.5 566.525 48.375 579.605 35.4375C603.245 12 633.125 -3.625 666.365 -15C684.725 -21.3125 703.865 -25.25 723.065 -26.875"></path>
<path stroke-miterlimit="10" stroke="#8154F7" d="M-21.1719 492.25C7.32812 498.875 48.5481 499.75 86.8881 497.937C106.748 496.875 125.768 494.625 142.868 489.25C160.388 483.75 174.968 475.625 190.628 465.875C195.608 462.75 200.408 459.437 205.148 455.75C223.448 441.625 240.728 428.125 264.548 418.375C287.768 408.875 309.668 400.187 329.708 395.687C334.568 394.625 339.368 394 344.048 393.625C357.248 392.563 369.668 393.75 385.088 394.313C394.568 394.688 404.288 393.75 414.368 392.125C441.068 387.688 461.168 379 476.588 364.75C478.688 362.812 480.668 360.75 482.528 358.625C491.888 347.937 499.628 334 505.148 317.562C511.808 297.625 514.868 274.25 515.588 251.5C516.308 230.813 515.828 209.625 517.568 188.063C520.328 151.625 529.628 113.875 545.648 83.125C554.888 65.3125 566.348 50.4375 579.548 37.8125C603.488 14.875 633.368 -0.312504 666.728 -11.625C685.088 -17.875 704.108 -21.9375 723.308 -23.75"></path>
<path stroke-miterlimit="10" stroke="#874DF8" d="M-18.5312 497.75C10.3287 507.375 51.2487 509.688 89.3487 507.125C109.149 505.75 128.049 502.625 144.969 496.125C162.309 489.563 176.529 480.188 191.769 469.438C196.629 466.062 201.309 462.437 205.869 458.562C223.629 443.625 240.249 429.25 263.949 419.187C286.749 409.562 309.009 401.688 329.409 398.75C334.389 398.063 339.309 397.875 344.109 397.813C357.549 397.625 370.209 400.437 385.569 401.687C395.109 402.437 404.769 401.688 414.609 399.875C440.889 395 460.869 383.625 475.389 367.687C477.369 365.5 479.229 363.188 480.969 360.875C489.549 349.188 496.449 334.688 501.309 318.063C507.129 297.938 509.769 274.813 510.789 252.313C511.749 231.75 512.049 210.438 514.389 188.875C518.289 152.438 528.369 114.875 544.809 84.5625C554.349 66.9375 566.049 52.25 579.429 39.875C603.609 17.4375 633.609 2.74999 667.029 -8.56251C685.329 -14.75 704.289 -18.875 723.429 -20.875"></path>
<path stroke-miterlimit="10" stroke="#8D46F9" d="M-15.8359 503.25C13.3241 515.812 54.0041 519.625 91.8041 516.375C111.484 514.625 130.324 510.625 147.064 503.125C164.164 495.437 178.024 484.812 192.904 473.187C197.644 469.5 202.144 465.625 206.584 461.562C223.804 445.812 239.764 430.5 263.284 420.25C285.664 410.438 308.284 403.5 329.104 402C334.204 401.625 339.244 401.812 344.104 402.25C357.844 403.5 370.624 407.375 385.984 409.313C395.584 410.5 405.184 409.875 414.784 407.875C440.644 402.562 460.564 388.563 474.124 370.875C475.984 368.438 477.724 365.937 479.284 363.437C487.144 350.75 493.144 335.687 497.284 318.875C502.264 298.5 504.484 275.625 505.804 253.437C507.004 233 508.084 211.625 511.084 190C516.064 153.562 526.984 116.25 543.844 86.3125C553.744 68.8125 565.624 54.375 579.244 42.3125C603.724 20.375 633.784 6.18748 667.204 -5.12502C685.504 -11.3125 704.404 -15.5 723.424 -17.6875"></path>
<path stroke-miterlimit="10" stroke="#9240FB" d="M-13.1328 508.688C16.3872 524.25 56.7672 529.438 94.2672 525.563C113.827 523.438 132.607 518.625 149.167 510C166.087 501.25 179.587 489.375 194.047 476.813C198.667 472.875 202.987 468.687 207.307 464.437C223.927 447.812 239.287 431.688 262.687 421.125C284.647 411.188 307.567 404.812 328.807 405.125C334.027 405.187 339.187 405.625 344.167 406.5C358.147 408.938 371.167 414.188 386.467 416.75C396.067 418.375 405.607 417.812 415.027 415.687C440.467 410 460.267 393.25 472.927 373.875C474.667 371.25 476.227 368.5 477.667 365.75C484.807 352.063 489.847 336.437 493.327 319.437C497.527 298.812 499.267 276.25 500.887 254.25C502.387 233.938 504.127 212.437 507.847 190.812C513.967 154.375 525.667 117.25 543.007 87.75C553.207 70.375 565.387 56.25 579.127 44.375C603.907 22.9375 634.027 9.25 667.507 -2C685.747 -8.125 704.587 -12.375 723.607 -14.8125"></path>
<path stroke-miterlimit="10" stroke="#9839FC" d="M-10.4375 514.187C19.4425 532.75 59.5225 539.375 96.7825 534.75C116.283 532.312 134.942 526.562 151.322 516.938C168.062 507.062 181.143 493.938 195.243 480.5C199.683 476.25 203.942 471.875 208.082 467.375C224.162 449.938 238.922 432.938 262.082 422.125C283.622 412.063 306.903 406.813 328.563 408.375C333.903 408.75 339.122 409.625 344.282 410.938C358.562 414.5 371.703 421.125 387.003 424.375C396.663 426.438 406.143 426 415.323 423.75C440.343 417.625 460.022 398.25 471.782 377.125C473.402 374.25 474.843 371.313 476.103 368.375C482.523 353.688 486.663 337.5 489.423 320.313C492.783 299.438 494.163 277.188 496.023 255.438C497.823 235.188 500.283 213.625 504.603 192C511.803 155.563 524.343 118.687 542.103 89.5625C552.663 72.375 565.023 58.4375 578.943 46.875C604.023 25.9375 634.203 12.75 667.743 1.49999C685.923 -4.62501 704.703 -8.875 723.663 -11.5"></path>
<path stroke-miterlimit="10" stroke="#9D32FE" d="M-7.80469 519.688C22.4353 541.25 62.2153 549.313 99.1753 544C118.555 541.188 137.155 534.625 153.355 523.875C169.855 512.938 182.575 498.563 196.315 484.188C200.635 479.688 204.715 475 208.735 470.313C224.215 452.063 238.375 434.25 261.415 423.125C282.535 413 306.115 408.563 328.195 411.563C333.655 412.313 338.995 413.563 344.215 415.25C358.735 419.938 372.115 428 387.355 431.875C397.075 434.375 406.495 434 415.435 431.625C440.035 425 459.595 403 470.455 380.188C471.955 377.063 473.275 373.875 474.415 370.75C480.115 355.125 483.355 338.313 485.455 320.938C488.035 299.813 488.935 277.813 491.095 256.375C493.135 236.25 496.375 214.625 501.355 192.938C509.695 156.438 523.015 119.813 541.195 91.125C552.055 74.0625 564.655 60.375 578.755 49.0625C604.135 28.625 634.375 15.9375 667.915 4.68751C686.095 -1.37499 704.815 -5.75 723.655 -8.5625"></path>
<path stroke-miterlimit="10" stroke="#A32BFF" d="M-5.10156 525.188C41.5784 562.625 109.138 565.063 155.458 530.813C171.778 518.75 184.078 503.125 197.458 487.875C218.038 464.375 232.018 438.375 260.758 424.062C286.558 411.187 317.458 408.875 344.278 419.563C359.098 425.438 372.598 434.812 387.838 439.375C428.338 451.437 461.998 409.438 472.798 373.25C483.838 336.375 481.678 296.125 486.178 257.438C492.358 203.875 510.478 137.875 540.298 92.75C571.678 45.3125 615.898 25.4375 668.158 8.0625C686.278 2 704.938 -2.375 723.778 -5.375"></path>
</g>
<mask height="500" width="720" y="0" x="0" maskUnits="userSpaceOnUse" style="mask-type:luminance" id="mask5_464_1697">
<path fill="white" d="M708 0H12C5.37258 0 0 5.37258 0 12V488C0 494.627 5.37257 500 12 500H708C714.627 500 720 494.627 720 488V12C720 5.37258 714.627 0 708 0Z"></path>
</mask>
<g mask="url(#mask5_464_1697)">
<path fill="#2B3640" d="M437.997 421.25C438.66 421.25 439.197 420.69 439.197 420C439.197 419.31 438.66 418.75 437.997 418.75C437.334 418.75 436.797 419.31 436.797 420C436.797 420.69 437.334 421.25 437.997 421.25Z"></path>
<path fill="#2B3640" d="M437.997 406.875C438.66 406.875 439.197 406.315 439.197 405.625C439.197 404.935 438.66 404.375 437.997 404.375C437.334 404.375 436.797 404.935 436.797 405.625C436.797 406.315 437.334 406.875 437.997 406.875Z"></path>
<path fill="#2B3640" d="M437.997 392.5C438.66 392.5 439.197 391.94 439.197 391.25C439.197 390.56 438.66 390 437.997 390C437.334 390 436.797 390.56 436.797 391.25C436.797 391.94 437.334 392.5 437.997 392.5Z"></path>
<path fill="#2B3640" d="M437.997 378.125C438.66 378.125 439.197 377.565 439.197 376.875C439.197 376.185 438.66 375.625 437.997 375.625C437.334 375.625 436.797 376.185 436.797 376.875C436.797 377.565 437.334 378.125 437.997 378.125Z"></path>
<path fill="#2B3640" d="M437.997 363.75C438.66 363.75 439.197 363.19 439.197 362.5C439.197 361.81 438.66 361.25 437.997 361.25C437.334 361.25 436.797 361.81 436.797 362.5C436.797 363.19 437.334 363.75 437.997 363.75Z"></path>
<path fill="#2B3640" d="M453.005 421.25C453.667 421.25 454.205 420.69 454.205 420C454.205 419.31 453.667 418.75 453.005 418.75C452.342 418.75 451.805 419.31 451.805 420C451.805 420.69 452.342 421.25 453.005 421.25Z"></path>
<path fill="#2B3640" d="M453.005 406.875C453.667 406.875 454.205 406.315 454.205 405.625C454.205 404.935 453.667 404.375 453.005 404.375C452.342 404.375 451.805 404.935 451.805 405.625C451.805 406.315 452.342 406.875 453.005 406.875Z"></path>
<path fill="#2B3640" d="M453.005 392.5C453.667 392.5 454.205 391.94 454.205 391.25C454.205 390.56 453.667 390 453.005 390C452.342 390 451.805 390.56 451.805 391.25C451.805 391.94 452.342 392.5 453.005 392.5Z"></path>
<path fill="#2B3640" d="M453.005 378.125C453.667 378.125 454.205 377.565 454.205 376.875C454.205 376.185 453.667 375.625 453.005 375.625C452.342 375.625 451.805 376.185 451.805 376.875C451.805 377.565 452.342 378.125 453.005 378.125Z"></path>
<path fill="#2B3640" d="M453.005 363.75C453.667 363.75 454.205 363.19 454.205 362.5C454.205 361.81 453.667 361.25 453.005 361.25C452.342 361.25 451.805 361.81 451.805 362.5C451.805 363.19 452.342 363.75 453.005 363.75Z"></path>
<path fill="#2B3640" d="M467.997 421.25C468.66 421.25 469.197 420.69 469.197 420C469.197 419.31 468.66 418.75 467.997 418.75C467.334 418.75 466.797 419.31 466.797 420C466.797 420.69 467.334 421.25 467.997 421.25Z"></path>
<path fill="#2B3640" d="M467.997 406.875C468.66 406.875 469.197 406.315 469.197 405.625C469.197 404.935 468.66 404.375 467.997 404.375C467.334 404.375 466.797 404.935 466.797 405.625C466.797 406.315 467.334 406.875 467.997 406.875Z"></path>
<path fill="#2B3640" d="M467.997 392.5C468.66 392.5 469.197 391.94 469.197 391.25C469.197 390.56 468.66 390 467.997 390C467.334 390 466.797 390.56 466.797 391.25C466.797 391.94 467.334 392.5 467.997 392.5Z"></path>
<path fill="#2B3640" d="M467.997 378.125C468.66 378.125 469.197 377.565 469.197 376.875C469.197 376.185 468.66 375.625 467.997 375.625C467.334 375.625 466.797 376.185 466.797 376.875C466.797 377.565 467.334 378.125 467.997 378.125Z"></path>
<path fill="#2B3640" d="M467.997 363.75C468.66 363.75 469.197 363.19 469.197 362.5C469.197 361.81 468.66 361.25 467.997 361.25C467.334 361.25 466.797 361.81 466.797 362.5C466.797 363.19 467.334 363.75 467.997 363.75Z"></path>
<path fill="#2B3640" d="M482.997 421.25C483.66 421.25 484.197 420.69 484.197 420C484.197 419.31 483.66 418.75 482.997 418.75C482.334 418.75 481.797 419.31 481.797 420C481.797 420.69 482.334 421.25 482.997 421.25Z"></path>
<path fill="#2B3640" d="M482.997 406.875C483.66 406.875 484.197 406.315 484.197 405.625C484.197 404.935 483.66 404.375 482.997 404.375C482.334 404.375 481.797 404.935 481.797 405.625C481.797 406.315 482.334 406.875 482.997 406.875Z"></path>
<path fill="#2B3640" d="M482.997 392.5C483.66 392.5 484.197 391.94 484.197 391.25C484.197 390.56 483.66 390 482.997 390C482.334 390 481.797 390.56 481.797 391.25C481.797 391.94 482.334 392.5 482.997 392.5Z"></path>
<path fill="#2B3640" d="M482.997 378.125C483.66 378.125 484.197 377.565 484.197 376.875C484.197 376.185 483.66 375.625 482.997 375.625C482.334 375.625 481.797 376.185 481.797 376.875C481.797 377.565 482.334 378.125 482.997 378.125Z"></path>
<path fill="#2B3640" d="M482.997 363.75C483.66 363.75 484.197 363.19 484.197 362.5C484.197 361.81 483.66 361.25 482.997 361.25C482.334 361.25 481.797 361.81 481.797 362.5C481.797 363.19 482.334 363.75 482.997 363.75Z"></path>
<path fill="#2B3640" d="M498.005 421.25C498.667 421.25 499.205 420.69 499.205 420C499.205 419.31 498.667 418.75 498.005 418.75C497.342 418.75 496.805 419.31 496.805 420C496.805 420.69 497.342 421.25 498.005 421.25Z"></path>
<path fill="#2B3640" d="M498.005 406.875C498.667 406.875 499.205 406.315 499.205 405.625C499.205 404.935 498.667 404.375 498.005 404.375C497.342 404.375 496.805 404.935 496.805 405.625C496.805 406.315 497.342 406.875 498.005 406.875Z"></path>
<path fill="#2B3640" d="M498.005 392.5C498.667 392.5 499.205 391.94 499.205 391.25C499.205 390.56 498.667 390 498.005 390C497.342 390 496.805 390.56 496.805 391.25C496.805 391.94 497.342 392.5 498.005 392.5Z"></path>
<path fill="#2B3640" d="M498.005 378.125C498.667 378.125 499.205 377.565 499.205 376.875C499.205 376.185 498.667 375.625 498.005 375.625C497.342 375.625 496.805 376.185 496.805 376.875C496.805 377.565 497.342 378.125 498.005 378.125Z"></path>
<path fill="#2B3640" d="M498.005 363.75C498.667 363.75 499.205 363.19 499.205 362.5C499.205 361.81 498.667 361.25 498.005 361.25C497.342 361.25 496.805 361.81 496.805 362.5C496.805 363.19 497.342 363.75 498.005 363.75Z"></path>
<path fill="#2B3640" d="M512.997 421.25C513.66 421.25 514.197 420.69 514.197 420C514.197 419.31 513.66 418.75 512.997 418.75C512.334 418.75 511.797 419.31 511.797 420C511.797 420.69 512.334 421.25 512.997 421.25Z"></path>
<path fill="#2B3640" d="M512.997 406.875C513.66 406.875 514.197 406.315 514.197 405.625C514.197 404.935 513.66 404.375 512.997 404.375C512.334 404.375 511.797 404.935 511.797 405.625C511.797 406.315 512.334 406.875 512.997 406.875Z"></path>
<path fill="#2B3640" d="M512.997 392.5C513.66 392.5 514.197 391.94 514.197 391.25C514.197 390.56 513.66 390 512.997 390C512.334 390 511.797 390.56 511.797 391.25C511.797 391.94 512.334 392.5 512.997 392.5Z"></path>
<path fill="#2B3640" d="M512.997 378.125C513.66 378.125 514.197 377.565 514.197 376.875C514.197 376.185 513.66 375.625 512.997 375.625C512.334 375.625 511.797 376.185 511.797 376.875C511.797 377.565 512.334 378.125 512.997 378.125Z"></path>
<path fill="#2B3640" d="M512.997 363.75C513.66 363.75 514.197 363.19 514.197 362.5C514.197 361.81 513.66 361.25 512.997 361.25C512.334 361.25 511.797 361.81 511.797 362.5C511.797 363.19 512.334 363.75 512.997 363.75Z"></path>
<path fill="#2B3640" d="M527.997 421.25C528.66 421.25 529.197 420.69 529.197 420C529.197 419.31 528.66 418.75 527.997 418.75C527.334 418.75 526.797 419.31 526.797 420C526.797 420.69 527.334 421.25 527.997 421.25Z"></path>
<path fill="#2B3640" d="M527.997 406.875C528.66 406.875 529.197 406.315 529.197 405.625C529.197 404.935 528.66 404.375 527.997 404.375C527.334 404.375 526.797 404.935 526.797 405.625C526.797 406.315 527.334 406.875 527.997 406.875Z"></path>
<path fill="#2B3640" d="M527.997 392.5C528.66 392.5 529.197 391.94 529.197 391.25C529.197 390.56 528.66 390 527.997 390C527.334 390 526.797 390.56 526.797 391.25C526.797 391.94 527.334 392.5 527.997 392.5Z"></path>
<path fill="#2B3640" d="M527.997 378.125C528.66 378.125 529.197 377.565 529.197 376.875C529.197 376.185 528.66 375.625 527.997 375.625C527.334 375.625 526.797 376.185 526.797 376.875C526.797 377.565 527.334 378.125 527.997 378.125Z"></path>
<path fill="#2B3640" d="M527.997 363.75C528.66 363.75 529.197 363.19 529.197 362.5C529.197 361.81 528.66 361.25 527.997 361.25C527.334 361.25 526.797 361.81 526.797 362.5C526.797 363.19 527.334 363.75 527.997 363.75Z"></path>
<path fill="#2B3640" d="M543.005 421.25C543.667 421.25 544.205 420.69 544.205 420C544.205 419.31 543.667 418.75 543.005 418.75C542.342 418.75 541.805 419.31 541.805 420C541.805 420.69 542.342 421.25 543.005 421.25Z"></path>
<path fill="#2B3640" d="M543.005 406.875C543.667 406.875 544.205 406.315 544.205 405.625C544.205 404.935 543.667 404.375 543.005 404.375C542.342 404.375 541.805 404.935 541.805 405.625C541.805 406.315 542.342 406.875 543.005 406.875Z"></path>
<path fill="#2B3640" d="M543.005 392.5C543.667 392.5 544.205 391.94 544.205 391.25C544.205 390.56 543.667 390 543.005 390C542.342 390 541.805 390.56 541.805 391.25C541.805 391.94 542.342 392.5 543.005 392.5Z"></path>
<path fill="#2B3640" d="M543.005 378.125C543.667 378.125 544.205 377.565 544.205 376.875C544.205 376.185 543.667 375.625 543.005 375.625C542.342 375.625 541.805 376.185 541.805 376.875C541.805 377.565 542.342 378.125 543.005 378.125Z"></path>
<path fill="#2B3640" d="M543.005 363.75C543.667 363.75 544.205 363.19 544.205 362.5C544.205 361.81 543.667 361.25 543.005 361.25C542.342 361.25 541.805 361.81 541.805 362.5C541.805 363.19 542.342 363.75 543.005 363.75Z"></path>
<path fill="#2B3640" d="M557.997 421.25C558.66 421.25 559.197 420.69 559.197 420C559.197 419.31 558.66 418.75 557.997 418.75C557.334 418.75 556.797 419.31 556.797 420C556.797 420.69 557.334 421.25 557.997 421.25Z"></path>
<path fill="#2B3640" d="M557.997 406.875C558.66 406.875 559.197 406.315 559.197 405.625C559.197 404.935 558.66 404.375 557.997 404.375C557.334 404.375 556.797 404.935 556.797 405.625C556.797 406.315 557.334 406.875 557.997 406.875Z"></path>
<path fill="#2B3640" d="M557.997 392.5C558.66 392.5 559.197 391.94 559.197 391.25C559.197 390.56 558.66 390 557.997 390C557.334 390 556.797 390.56 556.797 391.25C556.797 391.94 557.334 392.5 557.997 392.5Z"></path>
<path fill="#2B3640" d="M557.997 378.125C558.66 378.125 559.197 377.565 559.197 376.875C559.197 376.185 558.66 375.625 557.997 375.625C557.334 375.625 556.797 376.185 556.797 376.875C556.797 377.565 557.334 378.125 557.997 378.125Z"></path>
<path fill="#2B3640" d="M557.997 363.75C558.66 363.75 559.197 363.19 559.197 362.5C559.197 361.81 558.66 361.25 557.997 361.25C557.334 361.25 556.797 361.81 556.797 362.5C556.797 363.19 557.334 363.75 557.997 363.75Z"></path>
<path fill="#2B3640" d="M572.997 421.25C573.66 421.25 574.197 420.69 574.197 420C574.197 419.31 573.66 418.75 572.997 418.75C572.334 418.75 571.797 419.31 571.797 420C571.797 420.69 572.334 421.25 572.997 421.25Z"></path>
<path fill="#2B3640" d="M572.997 406.875C573.66 406.875 574.197 406.315 574.197 405.625C574.197 404.935 573.66 404.375 572.997 404.375C572.334 404.375 571.797 404.935 571.797 405.625C571.797 406.315 572.334 406.875 572.997 406.875Z"></path>
<path fill="#2B3640" d="M572.997 392.5C573.66 392.5 574.197 391.94 574.197 391.25C574.197 390.56 573.66 390 572.997 390C572.334 390 571.797 390.56 571.797 391.25C571.797 391.94 572.334 392.5 572.997 392.5Z"></path>
<path fill="#2B3640" d="M572.997 378.125C573.66 378.125 574.197 377.565 574.197 376.875C574.197 376.185 573.66 375.625 572.997 375.625C572.334 375.625 571.797 376.185 571.797 376.875C571.797 377.565 572.334 378.125 572.997 378.125Z"></path>
<path fill="#2B3640" d="M572.997 363.75C573.66 363.75 574.197 363.19 574.197 362.5C574.197 361.81 573.66 361.25 572.997 361.25C572.334 361.25 571.797 361.81 571.797 362.5C571.797 363.19 572.334 363.75 572.997 363.75Z"></path>
<path fill="#2B3640" d="M588.005 421.25C588.667 421.25 589.205 420.69 589.205 420C589.205 419.31 588.667 418.75 588.005 418.75C587.342 418.75 586.805 419.31 586.805 420C586.805 420.69 587.342 421.25 588.005 421.25Z"></path>
<path fill="#2B3640" d="M588.005 406.875C588.667 406.875 589.205 406.315 589.205 405.625C589.205 404.935 588.667 404.375 588.005 404.375C587.342 404.375 586.805 404.935 586.805 405.625C586.805 406.315 587.342 406.875 588.005 406.875Z"></path>
<path fill="#2B3640" d="M588.005 392.5C588.667 392.5 589.205 391.94 589.205 391.25C589.205 390.56 588.667 390 588.005 390C587.342 390 586.805 390.56 586.805 391.25C586.805 391.94 587.342 392.5 588.005 392.5Z"></path>
<path fill="#2B3640" d="M588.005 378.125C588.667 378.125 589.205 377.565 589.205 376.875C589.205 376.185 588.667 375.625 588.005 375.625C587.342 375.625 586.805 376.185 586.805 376.875C586.805 377.565 587.342 378.125 588.005 378.125Z"></path>
<path fill="#2B3640" d="M588.005 363.75C588.667 363.75 589.205 363.19 589.205 362.5C589.205 361.81 588.667 361.25 588.005 361.25C587.342 361.25 586.805 361.81 586.805 362.5C586.805 363.19 587.342 363.75 588.005 363.75Z"></path>
<path fill="#2B3640" d="M602.997 421.25C603.66 421.25 604.197 420.69 604.197 420C604.197 419.31 603.66 418.75 602.997 418.75C602.334 418.75 601.797 419.31 601.797 420C601.797 420.69 602.334 421.25 602.997 421.25Z"></path>
<path fill="#2B3640" d="M602.997 406.875C603.66 406.875 604.197 406.315 604.197 405.625C604.197 404.935 603.66 404.375 602.997 404.375C602.334 404.375 601.797 404.935 601.797 405.625C601.797 406.315 602.334 406.875 602.997 406.875Z"></path>
<path fill="#2B3640" d="M602.997 392.5C603.66 392.5 604.197 391.94 604.197 391.25C604.197 390.56 603.66 390 602.997 390C602.334 390 601.797 390.56 601.797 391.25C601.797 391.94 602.334 392.5 602.997 392.5Z"></path>
<path fill="#2B3640" d="M602.997 378.125C603.66 378.125 604.197 377.565 604.197 376.875C604.197 376.185 603.66 375.625 602.997 375.625C602.334 375.625 601.797 376.185 601.797 376.875C601.797 377.565 602.334 378.125 602.997 378.125Z"></path>
<path fill="#2B3640" d="M602.997 363.75C603.66 363.75 604.197 363.19 604.197 362.5C604.197 361.81 603.66 361.25 602.997 361.25C602.334 361.25 601.797 361.81 601.797 362.5C601.797 363.19 602.334 363.75 602.997 363.75Z"></path>
<path fill="#2B3640" d="M617.997 421.25C618.66 421.25 619.197 420.69 619.197 420C619.197 419.31 618.66 418.75 617.997 418.75C617.334 418.75 616.797 419.31 616.797 420C616.797 420.69 617.334 421.25 617.997 421.25Z"></path>
<path fill="#2B3640" d="M617.997 406.875C618.66 406.875 619.197 406.315 619.197 405.625C619.197 404.935 618.66 404.375 617.997 404.375C617.334 404.375 616.797 404.935 616.797 405.625C616.797 406.315 617.334 406.875 617.997 406.875Z"></path>
<path fill="#2B3640" d="M617.997 392.5C618.66 392.5 619.197 391.94 619.197 391.25C619.197 390.56 618.66 390 617.997 390C617.334 390 616.797 390.56 616.797 391.25C616.797 391.94 617.334 392.5 617.997 392.5Z"></path>
<path fill="#2B3640" d="M617.997 378.125C618.66 378.125 619.197 377.565 619.197 376.875C619.197 376.185 618.66 375.625 617.997 375.625C617.334 375.625 616.797 376.185 616.797 376.875C616.797 377.565 617.334 378.125 617.997 378.125Z"></path>
<path fill="#2B3640" d="M617.997 363.75C618.66 363.75 619.197 363.19 619.197 362.5C619.197 361.81 618.66 361.25 617.997 361.25C617.334 361.25 616.797 361.81 616.797 362.5C616.797 363.19 617.334 363.75 617.997 363.75Z"></path>
</g>
</svg>
